<svg width="1444" height="736" viewBox="0 0 1444 736" fill="none" xmlns="http://www.w3.org/2000/svg">
<path fill-rule="evenodd" clip-rule="evenodd" d="M1324 106.286H1444V185V186V702H1443.68C1443.89 702.332 1444 702.665 1444 703C1444 721.225 1121.65 736 724 736C326.355 736 4 721.225 4 703C4 702.665 4.10852 702.332 4.32422 702H4V186V185V0L124 17.7143C244 35.4286 484 70.8571 724 88.5714C964 106.286 1204 106.286 1324 106.286Z" fill="url(#paint0_linear)"/>
<mask id="mask0" mask-type="alpha" maskUnits="userSpaceOnUse" x="125" y="669" width="108" height="53">
<rect x="125" y="669" width="107.112" height="53" fill="#C4C4C4"/>
</mask>
<g mask="url(#mask0)">
<path fill-rule="evenodd" clip-rule="evenodd" d="M216.095 717.405C213.968 712.553 209.278 707.204 204.286 704.229C202.95 703.433 201.545 702.441 200.229 701.511L200.229 701.511C199.645 701.098 199.078 700.698 198.543 700.333C196.673 699.057 194.982 698.052 193.336 697.52C187.484 695.627 183.168 694.76 177.343 694.395C175.168 694.259 172.959 695.02 170.513 696.292C169.459 696.84 168.435 697.442 167.373 698.065C167.211 698.16 167.048 698.256 166.884 698.352C165.681 699.057 164.409 699.789 163.141 700.369C154.097 704.505 148.472 713.708 147.635 723.696C147.593 724.2 147.39 724.652 147.077 725.013C147.155 725.29 147.221 725.563 147.276 725.825C147.462 726.704 147.578 727.654 147.652 728.562C147.799 730.379 147.789 732.195 147.763 733.257L145.191 733.154L147.763 733.257C147.759 733.437 147.83 733.911 148.119 734.706C148.391 735.45 148.791 736.308 149.27 737.183C150.262 738.995 151.408 740.551 152.112 741.2C157.751 746.402 166.133 750.788 173.538 751.635C189.739 753.489 205.212 746.77 212.801 734.278C214.039 732.239 215.446 729.187 216.23 725.986C217.027 722.73 217.092 719.678 216.095 717.405ZM142.583 722.405C141.535 723.107 141.21 724.466 141.873 725.561C141.946 725.681 142.091 726.027 142.231 726.685C142.361 727.303 142.457 728.042 142.521 728.837C142.649 730.424 142.642 732.061 142.618 733.052C142.593 734.096 142.9 735.224 143.256 736.201C143.63 737.228 144.143 738.312 144.707 739.341C145.799 741.336 147.253 743.438 148.55 744.635C154.813 750.412 164.217 755.445 173.017 756.452C191.045 758.514 208.586 751.06 217.279 736.751C218.73 734.361 220.337 730.876 221.245 727.166C222.14 723.511 222.446 719.278 220.845 715.627C218.306 709.834 212.898 703.673 206.974 700.142C205.815 699.452 204.704 698.666 203.486 697.805L203.486 697.805C202.861 697.363 202.208 696.901 201.506 696.421C199.563 695.096 197.344 693.718 194.92 692.934C188.679 690.915 183.911 689.95 177.583 689.554C173.921 689.325 170.66 690.629 167.96 692.033C166.78 692.646 165.632 693.321 164.579 693.94L164.579 693.94C164.419 694.034 164.262 694.126 164.107 694.217C162.894 694.928 161.825 695.537 160.822 695.995C150.118 700.89 143.763 711.389 142.583 722.405ZM197.604 731.734C198.406 729.583 198.678 727.218 198.463 725.488C198.435 725.267 198.397 725.021 198.35 724.715L198.35 724.715L198.329 724.579C198.276 724.228 198.215 723.819 198.167 723.4C198.095 722.771 198.027 721.931 198.129 721.089C198.105 721.062 198.081 721.033 198.057 721.003C197.838 720.735 197.622 720.393 197.468 719.969C197.316 719.548 197.253 719.127 197.252 718.726C197.25 718.27 197.123 717.938 196.683 717.355C196.502 717.115 196.326 716.905 196.101 716.639L196.101 716.638C195.991 716.507 195.869 716.363 195.73 716.194C195.348 715.731 194.899 715.162 194.484 714.483C193.539 712.934 191.556 711.639 188.838 710.759C186.72 710.074 184.426 709.731 182.46 709.651C182.168 709.957 181.792 710.185 181.353 710.295C180.125 710.603 178.99 710.653 178.11 710.692L178.11 710.692C178.008 710.697 177.91 710.701 177.816 710.705C176.867 710.751 176.151 710.818 175.372 711.09C174.58 711.366 173.291 711.719 172.012 711.991C170.858 712.237 169.41 712.485 168.3 712.439C168.276 712.448 168.243 712.462 168.201 712.483C168.002 712.58 167.715 712.765 167.35 713.069C166.62 713.676 165.787 714.58 164.988 715.623C164.194 716.659 163.493 717.754 163.004 718.696C162.759 719.168 162.586 719.566 162.48 719.873C162.409 720.077 162.386 720.188 162.38 720.222L162.378 720.228C162.4 721.68 163.162 724.341 164.513 727.113C165.89 729.938 167.523 732.142 168.772 732.994C170.794 734.373 172.79 734.795 175.173 735.061C175.59 735.108 176.029 735.149 176.488 735.193L176.489 735.193L176.489 735.193C178.547 735.388 180.988 735.62 183.461 736.485C184.921 736.995 187.043 737.208 189.228 737.094C191.427 736.979 193.318 736.552 194.342 736.055C195.597 735.446 196.788 733.925 197.604 731.734ZM178.874 705.544C178.503 705.58 178.11 705.598 177.655 705.619L177.651 705.619C177.56 705.624 177.466 705.628 177.37 705.633C176.332 705.683 175.054 705.768 173.612 706.271C173.053 706.467 171.961 706.772 170.815 707.016C169.594 707.276 168.651 707.39 168.257 707.363C167.343 707.302 166.534 707.582 165.928 707.879C165.299 708.188 164.702 708.61 164.162 709.059C163.079 709.959 162.009 711.149 161.076 712.366C160.139 713.59 159.28 714.92 158.643 716.147C158.325 716.759 158.044 717.382 157.838 717.978C157.645 718.535 157.454 719.243 157.457 719.977C157.468 722.61 158.646 726.173 160.137 729.233C161.618 732.27 163.758 735.536 166.188 737.193C169.241 739.276 172.208 739.813 174.859 740.109C175.424 740.173 175.962 740.225 176.481 740.276L176.482 740.276L176.483 740.276C178.491 740.471 180.216 740.639 182.07 741.287C184.357 742.087 187.171 742.298 189.694 742.166C192.202 742.034 194.789 741.544 196.595 740.668C199.377 739.318 201.178 736.499 202.207 733.738C203.251 730.937 203.677 727.739 203.342 725.06C203.305 724.759 203.254 724.431 203.209 724.134L203.189 724.006C203.136 723.659 203.089 723.337 203.053 723.027C202.975 722.345 202.994 721.996 203.022 721.871C203.175 721.2 203.24 720.404 202.981 719.581C202.772 718.917 202.419 718.45 202.127 718.144C201.943 716.51 201.228 715.293 200.514 714.347C200.244 713.989 199.926 713.61 199.663 713.297L199.663 713.297C199.572 713.189 199.488 713.089 199.415 713.001C199.088 712.605 198.83 712.267 198.616 711.916C196.694 708.766 193.292 706.946 190.119 705.919C186.875 704.87 183.397 704.492 180.71 704.563C179.945 704.584 179.286 704.964 178.874 705.544ZM198.24 720.449C198.24 720.449 198.24 720.452 198.239 720.457C198.239 720.452 198.24 720.449 198.24 720.449ZM175.481 719.685C175.761 719.461 176.083 719.206 176.433 718.953C176.728 718.705 177.07 718.471 177.461 718.282C177.528 718.243 177.597 718.205 177.665 718.169C178.486 717.728 179.698 717.256 181.117 717.474C182.627 717.705 183.767 718.615 184.587 719.75C185.299 720.735 185.608 721.819 185.534 722.902C185.462 723.936 185.053 724.818 184.596 725.503C183.71 726.834 182.373 727.833 181.483 728.406C180.556 729.002 179.532 729.472 178.447 729.577C177.241 729.694 176.039 729.341 175.149 728.458C174.359 727.675 174.051 726.711 173.931 725.961C173.87 725.577 173.848 725.188 173.856 724.804C173.646 724.649 173.457 724.461 173.299 724.242C172.49 723.123 172.776 721.61 173.937 720.863C174.304 720.627 174.688 720.319 175.206 719.904L175.206 719.904C175.294 719.834 175.385 719.761 175.481 719.685ZM180.14 722.993C179.976 722.972 179.813 722.936 179.653 722.885C179.56 723.018 179.458 723.194 179.36 723.412C179.287 723.575 179.223 723.746 179.169 723.921C179.552 723.625 179.898 723.304 180.14 722.993ZM179.018 725.413C179.018 725.414 179.016 725.409 179.013 725.399C179.017 725.408 179.018 725.413 179.018 725.413Z" fill="white"/>
<ellipse cx="216.313" cy="693.844" rx="3.51187" ry="3.3125" fill="#D1DEFF"/>
<ellipse cx="223.332" cy="705.438" rx="3.51187" ry="3.3125" fill="#D1DEFF"/>
<ellipse rx="3.46651" ry="3.35996" transform="matrix(0.887408 0.460985 -0.504228 0.86357 177.187 678.468)" fill="#D1DEFF"/>
<ellipse rx="3.46651" ry="3.35996" transform="matrix(0.887408 0.460985 -0.504228 0.86357 192.991 680.125)" fill="#D1DEFF"/>
<ellipse rx="3.46651" ry="3.35996" transform="matrix(0.887408 0.460985 -0.504228 0.86357 205.284 686.75)" fill="#D1DEFF"/>
<ellipse cx="160.121" cy="682.25" rx="3.51187" ry="3.3125" fill="#D1DEFF"/>
<ellipse cx="147.817" cy="690.531" rx="3.51187" ry="3.3125" fill="#D1DEFF"/>
<ellipse cx="139.039" cy="703.781" rx="3.51187" ry="3.3125" fill="#D1DEFF"/>
</g>
<path fill-rule="evenodd" clip-rule="evenodd" d="M1005.5 312.672C1028.97 312.672 1048 302.598 1048 290.172C1048 277.745 1028.97 267.672 1005.5 267.672C982.028 267.672 963 277.745 963 290.172C963 302.598 982.028 312.672 1005.5 312.672Z" fill="#E8CA2F"/>
<path fill-rule="evenodd" clip-rule="evenodd" d="M1055 305.672C1055 278.058 1032.84 255.672 1005.5 255.672C978.162 255.672 956 278.058 956 305.672" fill="#4A76E7"/>
<rect x="1003" y="103" width="5" height="160" fill="#4A76E7"/>
<g opacity="0.7" clip-path="url(#clip0)">
<path fill-rule="evenodd" clip-rule="evenodd" d="M1063.35 250.001C1076.32 250.001 1086.83 243.993 1086.83 236.581C1086.83 229.169 1076.32 223.16 1063.35 223.16C1050.39 223.16 1039.88 229.169 1039.88 236.581C1039.88 243.993 1050.39 250.001 1063.35 250.001Z" fill="#FFEE94"/>
<path fill-rule="evenodd" clip-rule="evenodd" d="M1090.69 245.823C1090.69 229.352 1078.45 216 1063.35 216C1048.24 216 1036 229.352 1036 245.823" fill="#85A4F5"/>
<rect x="1060" y="103" width="5" height="136" fill="#85A4F5"/>
</g>
<path fill-rule="evenodd" clip-rule="evenodd" d="M77.1017 192.711C78.1228 193.65 79.1241 194.609 80.1011 195.607C80.8457 196.368 82.1634 197.278 82.4307 198.431C82.7085 199.628 81.8313 200.749 81.1383 201.473C77.4738 205.302 73.3475 207.891 68.2697 208.321C60.451 208.984 53.6465 206.717 46.8628 202.255C42.0977 199.121 38.9412 194.484 38.2518 188.224C32.577 190.903 27.0882 194.595 22.4241 199.126C20.1227 201.362 18.1406 203.84 16.3071 206.585C15.133 208.344 13.9971 210.132 12.943 211.988C12.4848 212.794 12.0191 214.224 11.2626 214.689C10.3745 215.234 9.30127 214.379 9.34525 213.258C9.38186 212.324 10.2693 211.242 10.6841 210.479C11.3733 209.212 12.0727 207.953 12.8094 206.721C14.0012 204.726 15.2331 202.759 16.5767 200.893C19.596 196.698 23.4378 193.233 27.4203 190.279C35.0605 184.61 43.4454 181.039 52.7418 180.737C58.458 180.55 63.2667 182.769 68.155 186.081C71.1984 188.143 74.3401 190.171 77.1017 192.711Z" fill="#C5D5FF"/>
<path fill-rule="evenodd" clip-rule="evenodd" d="M2.9533 165.292C8.91016 158.324 14.8876 151.444 21.5429 145.309C25.4651 141.694 29.5987 138.406 33.647 134.979C33.1797 135.443 32.7217 135.922 32.2746 136.411C33.5382 135.437 35.1925 134.887 36.5322 133.985C38.0265 132.979 39.4549 131.828 40.8561 130.669C43.591 128.405 46.2849 126.099 49.0961 123.954C52.2283 121.564 55.4744 119.355 58.6598 117.055C61.3634 115.104 64.1 112.967 66.9922 111.372C68.5685 110.502 70.1485 109.471 71.7314 108.564C72.2611 108.26 77.6362 104.406 77.6227 104.394C77.3255 104.14 74.6207 105.583 74.2024 105.777C72.9805 106.344 71.8119 107.022 70.6371 107.698C71.2819 106.253 71.7924 104.736 72.0702 103.138C72.1561 102.645 72.8437 99.0555 72.4919 98.7544C72.3161 98.604 70.6012 105.026 70.5134 105.644C70.442 106.145 70.4525 106.868 70.3079 107.343C70.0746 108.11 70.0863 107.878 69.5722 108.31C68.6298 109.102 67.3789 109.597 66.359 110.259C65.809 110.608 64.1062 111.991 63.0805 112.385C59.9772 114.097 56.8316 116.73 53.883 118.917C54.6568 117.265 55.2458 115.538 55.6752 113.728C55.7774 113.298 56.8795 109.443 56.6121 109.214C56.3112 108.957 54.2113 114.844 54.0869 115.402C53.8558 116.437 53.8079 117.589 53.5186 118.597C53.201 119.702 52.2101 120.094 51.317 120.739C48.0311 123.11 44.8581 125.629 41.7378 128.264C38.3333 121.388 42.2589 113.084 45.5673 107.314C47.952 103.155 51.1625 99.5901 54.5522 96.4777C59.0761 92.3238 64.2521 89.0053 69.4217 85.9699C75.4453 82.433 81.9558 80.2416 88.7243 79.2292C92.2643 78.6996 95.8859 78.7144 99.4617 78.8842C101.209 78.967 102.885 79.2298 104.559 79.8768C105.314 80.1688 106.043 80.5367 106.753 80.9487C107.293 81.2617 108.599 81.5922 108.91 82.0586C111.465 85.8358 112.772 89.5998 112.573 94.3463C112.384 98.8395 111.134 103.335 109.439 107.343C107.55 111.806 105.122 115.856 101.945 119.256C99.5218 121.849 96.8124 124.107 94.1208 126.335C84.5479 134.258 72.411 141.149 60.0124 139.379C55.9989 138.806 52.1816 137.212 48.6143 135.046C47.7737 134.535 46.9382 134.019 46.1448 133.416C45.6097 133.01 44.1796 131.179 43.6416 131.113C42.904 131.022 41.3151 132.726 40.6231 133.244C35.3643 137.187 30.2433 141.343 25.2296 145.667C19.8955 150.268 14.8229 155.182 9.89968 160.327C7.80575 162.515 5.72511 164.708 3.69184 166.97C3.2186 167.496 2.06114 169.434 1.20281 169.522C0.660009 169.577 0.294099 169.051 0.371587 168.481C0.506219 167.489 2.3434 166.005 2.9533 165.292Z" fill="white"/>
<path fill-rule="evenodd" clip-rule="evenodd" d="M98.3212 139.773C99.2355 138.737 100.262 137.803 101.468 137.137C101.773 136.969 104.043 135.841 104.191 136.088C104.536 136.665 98.5958 139.442 98.3212 139.773ZM87.5561 132.857C87.5635 132.9 86.7762 134.298 86.5619 134.727C86.1056 135.64 85.6844 136.572 85.2882 137.504C85.8748 135.857 86.4776 134.329 87.5561 132.857ZM142.613 144.229C143.371 144.485 144.283 143.478 143.299 143.23C142.503 143.031 142.542 142.984 142.185 142.314C141.895 141.769 141.716 141.105 141.461 140.534C140.921 139.323 140.309 138.167 139.557 137.084C137.945 134.763 135.981 132.763 133.779 131.077C129.935 128.136 125.625 125.448 121.054 124.097C113.785 121.95 105.512 121.817 98.2315 123.306C93.7226 124.228 89.602 125.831 86.608 129.628C85.1115 131.525 83.9369 133.748 83.4234 136.196C83.2894 136.835 83.3145 137.547 83.1467 138.173C82.8889 139.136 83.0027 138.88 81.9256 139.067C80.7495 139.272 79.5744 139.481 78.3996 139.693C75.3237 140.25 72.2298 140.84 69.2326 141.743C68.2461 142.04 67.2814 142.403 66.339 142.825C65.6262 143.144 62.7879 144.145 62.443 145.113C61.8689 146.725 63.7925 145.994 64.3902 145.644C64.9138 145.336 65.4513 145.049 65.9967 144.785C67.3699 144.121 68.8006 143.607 70.2636 143.198C71.8446 142.755 73.458 142.425 75.0651 142.094C76.5639 141.786 78.0683 141.506 79.5746 141.238C80.4114 141.089 81.2489 140.945 82.0864 140.8C82.3725 140.751 82.8771 140.491 82.8389 140.88C84.5997 140.526 86.5038 140.577 88.2973 140.479C90.4941 140.359 92.699 140.261 94.9032 140.333C96.4928 140.385 98.0839 140.494 99.6655 140.717C100.59 140.848 101.499 141.039 102.406 141.28C102.904 141.413 104.868 141.695 105.139 142.149C105.023 141.954 102.855 142.143 102.579 142.132C101.476 142.089 100.381 141.975 99.2813 141.846C97.241 141.608 95.1997 141.483 93.1532 141.501C93.1609 141.877 94.559 142.546 94.9002 142.795C95.6654 143.354 96.3983 143.963 97.082 144.631C98.2865 145.808 99.7287 147.266 100.562 148.66C100.316 148.249 99.1051 147.715 98.6752 147.401C97.9866 146.897 97.312 146.361 96.6737 145.787C96.0844 145.257 95.5345 144.685 94.9939 144.101C94.4531 143.516 93.7193 142.3 93.0088 141.91C92.9659 141.887 92.6562 142.143 92.4803 142.056C92.303 141.968 92.082 141.53 92.037 141.512C91.3756 141.245 90.1196 141.577 89.4243 141.611C87.6212 141.697 85.8198 141.811 84.0179 141.915C83.4597 141.947 82.9853 141.814 82.7745 142.245C82.5498 142.704 82.9615 143.911 83.0786 144.412C83.513 146.269 84.2847 147.935 85.4993 149.374C87.774 152.07 90.579 153.868 93.7477 155.07C105.885 159.675 118.797 161.519 130.93 156.729C135.954 154.746 143.519 151.202 142.613 144.229Z" fill="#85A4F5"/>
<defs>
<linearGradient id="paint0_linear" x1="808" y1="538.5" x2="922" y2="-58.5" gradientUnits="userSpaceOnUse">
<stop stop-color="#BBCEFF"/>
<stop offset="1" stop-color="#EDF2FF" stop-opacity="0"/>
</linearGradient>
<clipPath id="clip0">
<rect width="55" height="147" fill="white" transform="translate(1036 103)"/>
</clipPath>
</defs>
</svg>
