<svg xmlns="http://www.w3.org/2000/svg" width="36" height="36" viewBox="0 0 36 36" fill="none">
<g clip-path="url(#clip0)">
<circle cx="18" cy="18" r="20" fill="#898571"/>
<path d="M18 -2C6.95161 -2 -2 6.95161 -2 18C-2 29.0484 6.95161 38 18 38C29.0484 38 38 29.0484 38 18C38 6.95161 29.0484 -2 18 -2ZM27.3306 19.9355L13.1371 28.0806C11.8629 28.7903 10.2581 27.879 10.2581 26.3871V9.6129C10.2581 8.12903 11.8548 7.20968 13.1371 7.91935L27.3306 16.5484C28.6532 17.2903 28.6532 19.2016 27.3306 19.9355Z" fill="white"/>
<path d="M12.7694 25.65C12.7289 24.697 12.4503 23.7517 12.3149 22.809C12.0811 21.1819 11.9078 19.5896 12.0535 17.9508C12.1885 16.432 12.4401 14.9092 12.7183 13.4109C12.8486 12.7092 13.0763 11.9451 13.0763 11.229C13.0763 11.1007 13.0305 10.8997 13.207 11.0585C13.6877 11.4912 14.1243 11.9423 14.6786 12.2859C17.2669 13.8899 20.1159 14.9723 22.821 16.3542C23.5336 16.7183 24.4703 17.0091 25.0426 17.5815C25.5551 18.094 24.9938 18.1448 24.554 18.5702C23.0684 20.0071 21.0743 20.9031 19.3492 21.9908C18.2168 22.7048 17.1185 23.4357 15.9287 24.0306C15.7848 24.1026 14.7035 24.9694 14.6104 24.667C14.3531 23.8307 14.0873 22.9971 14.0195 22.1158C13.9032 20.6045 13.7851 18.8214 14.0536 17.3258C14.113 16.9946 14.2013 16.6816 14.2013 16.3428C14.2013 15.7783 14.2166 15.4206 14.7638 15.7746C15.3321 16.1423 15.9347 16.5078 16.548 16.7974C17.3496 17.1759 18.2143 17.4536 18.9629 17.9338C19.2969 18.1481 19.656 18.3656 20.0311 18.4906" stroke="white" stroke-linecap="round" stroke-linejoin="round"/>
</g>
<defs>
<clipPath id="clip0">
<rect width="36" height="36" fill="white"/>
</clipPath>
</defs>
</svg>