<svg xmlns="http://www.w3.org/2000/svg" width="61" height="82" viewBox="0 0 61 82" fill="none">
<g clip-path="url(#clip0)">
<path d="M56.1407 60.8547L38.7307 45.1931L34.8992 27.1673L38.6255 26.3752L37.8334 22.6489L15.4758 27.4012L16.2678 31.1275L19.9941 30.3354L23.8256 48.3613L14.2909 69.7501C13.7156 71.0397 13.5084 72.4633 13.6921 73.8634C13.8757 75.2634 14.4431 76.5854 15.3315 77.683C16.2199 78.7806 17.3947 79.611 18.7258 80.0823C20.0568 80.5536 21.4924 80.6475 22.8735 80.3536L52.6111 74.0327C53.9923 73.7394 55.2656 73.0698 56.2899 72.0978C57.3142 71.1258 58.0496 69.8894 58.4147 68.5254C58.7799 67.1613 58.7606 65.7229 58.3589 64.3691C57.9572 63.0154 57.1889 61.7992 56.1388 60.8551L56.1407 60.8547ZM27.8093 48.7803L23.7204 29.5434L31.1729 27.9593L35.2618 47.1962L41.6974 52.9847L24.2845 56.6859L27.8093 48.7803ZM51.8209 70.306L22.0833 76.6269C21.3897 76.7736 20.669 76.7257 20.0009 76.4887C19.3327 76.2516 18.743 75.8345 18.2969 75.2835C17.8508 74.7325 17.5657 74.0689 17.4729 73.366C17.3801 72.6631 17.4833 71.9483 17.7712 71.3004L22.3675 60.988L45.1984 56.1351L53.5937 63.6861C54.1202 64.1609 54.5053 64.7719 54.7064 65.4518C54.9075 66.1316 54.9169 66.8538 54.7335 67.5387C54.5501 68.2235 54.181 68.8444 53.6671 69.3327C53.1531 69.821 52.5142 70.1579 51.8209 70.306Z" fill="#CAF1F4"/>
<circle cx="20.5177" cy="19.5145" r="3" transform="rotate(-12 20.5177 19.5145)" stroke="#CAF1F4" stroke-width="2"/>
<circle cx="27.3043" cy="12.9591" r="2" transform="rotate(-12 27.3043 12.9591)" stroke="#CAF1F4" stroke-width="2"/>
<circle cx="19.3846" cy="6.97567" r="1" transform="rotate(-12 19.3846 6.97567)" stroke="#CAF1F4"/>
</g>
<defs>
<clipPath id="clip0">
<rect width="46" height="74" fill="white" transform="translate(0 9.5625) rotate(-12)"/>
</clipPath>
</defs>
</svg>