<svg width="61" height="61" viewBox="0 0 61 61" fill="none" xmlns="http://www.w3.org/2000/svg">
<path d="M32.7251 36.5713C32.2524 36.6095 32.8763 38.4215 30.7423 38.5615C30.4895 38.3581 28.7389 36.9042 28.4572 36.8514C27.4058 35.2375 27.2253 33.7258 28.022 32.9261C28.7146 32.231 30.3517 31.2631 31.459 31.3494C32.4256 31.4247 35.0237 32.1807 35.7642 32.9185C36.7404 33.891 38.6742 35.3612 38.465 36.7389C38.2844 37.9281 38.473 39.2941 37.581 40.1895C34.9342 42.8463 31.1182 43.9627 28.0898 43.2836C25.2258 42.6414 21.5314 37.3661 20.728 34.6775C19.7548 31.4209 20.978 29.4056 21.856 26.5949C23.0347 25.4118 23.4996 24.9451 24.8683 24.2121C27.0649 23.5679 26.6219 23.2949 27.8457 23.1212C32.2487 22.4964 35.7281 22.1162 40.137 24.0929C43.8501 25.7577 44.3895 27.2409 46.5514 30.4002C47.9225 32.4038 47.002 35.0455 47.396 38.0016C46.5797 40.1131 46.9737 40.1131 46.1293 41.8023C45.3025 42.6322 44.445 44.6174 43.5954 45.3537C41.9189 46.8066 40.4434 49.2245 38.3187 50.0471C35.1402 51.2777 31.9526 51.3245 28.4908 50.9899C26.4985 50.7973 23.9539 50.2285 22.0302 49.366C19.9179 48.4189 18.5618 47.0405 16.8687 45.3537C13.2477 41.7463 10.3424 36.1371 9.94725 31.3023C9.45818 25.3178 12.941 17.9683 17.8349 15.2827C20.2735 13.9444 22.2452 12.6338 25.014 11.8189C27.6664 11.0382 31.2756 11.3335 34.6676 12.1577C35.2917 12.4587 35.86 12.3712 36.4881 12.5485C37.2617 12.767 38.3138 13.2677 39.1129 13.4766C40.6083 13.8674 41.3478 14.5698 42.6321 15.2827C44.3209 15.7805 46.5074 18.0108 47.7931 19.2916C50.5241 22.0124 53.2587 25.3029 54.4612 28.767" stroke="#0EA2BC" stroke-opacity="0.4" stroke-width="2" stroke-linecap="round" stroke-linejoin="round"/>
</svg>
