<svg width="80" height="79" viewBox="0 0 80 79" fill="none" xmlns="http://www.w3.org/2000/svg">
<path fill-rule="evenodd" clip-rule="evenodd" d="M13.0336 25.8283C17.1909 17.1022 25.9164 11.4835 35.1136 9.85548C43.7941 8.31896 51.8434 12.2255 58.5032 17.7798C65.325 23.4692 71.781 30.7764 71.2844 40.0218C70.7908 49.2098 63.6187 56.3884 56.1432 61.7155C49.2093 66.6567 40.9746 69.1761 32.9984 67.3047C24.9442 65.415 18.6498 59.636 15.0048 52.0636C11.0798 43.9095 9.00513 34.284 13.0336 25.8283Z" fill="url(#paint0_linear)"/>
<path d="M48 31.2949H32C30.9 31.2949 30.01 32.1949 30.01 33.2949L30 45.2949C30 46.3949 30.9 47.2949 32 47.2949H48C49.1 47.2949 50 46.3949 50 45.2949V33.2949C50 32.1949 49.1 31.2949 48 31.2949ZM48 35.2949L40 40.2949L32 35.2949V33.2949L40 38.2949L48 33.2949V35.2949Z" fill="white"/>
<defs>
<linearGradient id="paint0_linear" x1="40" y1="39" x2="215.5" y2="51.5" gradientUnits="userSpaceOnUse">
<stop stop-color="#64C368"/>
<stop offset="1" stop-color="#64C368" stop-opacity="0"/>
</linearGradient>
</defs>
</svg>
