<svg xmlns="http://www.w3.org/2000/svg" width="60" height="58" viewBox="0 0 60 58" fill="none">
<path fill-rule="evenodd" clip-rule="evenodd" d="M59.9883 28.4847C60.2805 38.1461 55.0891 47.1325 47.6538 52.7853C40.6361 58.1206 31.6914 58.3263 23.2289 56.4314C14.5607 54.4904 5.47812 50.9433 1.69283 42.4937C-2.06899 34.0965 1.02761 24.433 5.24051 16.2775C9.14822 8.71278 15.32 2.70731 23.2693 0.724949C31.2964 -1.2768 39.5366 0.985059 46.2404 6.05319C53.4592 11.5106 59.7051 19.1227 59.9883 28.4847Z" fill="#C0D62C"/>
<path d="M38 23.2949H22C20.9 23.2949 20.01 24.1949 20.01 25.2949L20 37.2949C20 38.3949 20.9 39.2949 22 39.2949H38C39.1 39.2949 40 38.3949 40 37.2949V25.2949C40 24.1949 39.1 23.2949 38 23.2949ZM38 27.2949L30 32.2949L22 27.2949V25.2949L30 30.2949L38 25.2949V27.2949Z" fill="white"/>
</svg>  