<svg xmlns="http://www.w3.org/2000/svg" width="800" height="469" viewBox="0 0 800 469" fill="none">
<mask id="mask0" mask-type="alpha" maskUnits="userSpaceOnUse" x="0" y="0" width="800" height="469">
<rect width="799.087" height="468.228" fill="#C4C4C4"/>
</mask>
<g mask="url(#mask0)">
<path fill-rule="evenodd" clip-rule="evenodd" d="M921.803 338.347L881.865 363.266C841.928 388.185 762.052 438.022 681.549 455.493C601.046 472.964 520.229 474.251 438.784 443.172C357.339 412.092 276.485 383.053 194.856 370.889C116.784 357.483 19.0745 378.955 -20.8633 403.874L-46.6773 422.072L-49.4137 280.969L-9.00508 280.326C31.4034 279.682 112.22 278.395 193.038 277.107C273.855 275.82 354.672 274.532 435.489 273.245C516.306 271.958 597.123 270.67 677.94 269.383C758.757 268.096 839.574 266.808 879.982 266.165L920.391 265.521L921.803 338.347Z" fill="#0099FF" fill-opacity="0.67"/>
<path fill-rule="evenodd" clip-rule="evenodd" d="M701.797 295.219L671.021 311.454C640.245 327.688 578.692 360.157 516.28 372.446C453.868 384.734 390.597 376.842 326.896 358.859C263.196 340.876 199.065 312.802 136.224 315C73.382 317.198 11.8295 349.667 -18.9468 365.902L-49.723 382.136L-54.2344 276.187L-22.8137 275.088C8.6071 273.989 71.4486 271.791 134.29 269.593C197.132 267.395 259.973 265.197 322.815 262.999C385.656 260.802 448.498 258.604 511.339 256.406C574.181 254.208 637.022 252.01 668.443 250.911L699.864 249.812L701.797 295.219Z" fill="#0099FF" fill-opacity="0.3"/>
<path d="M1.43122e-05 -8.18584H799.087V277.891H1.43122e-05V-8.18584Z" fill="#0A1361"/>
<path fill-rule="evenodd" clip-rule="evenodd" d="M943.366 366.034L899.019 375.244C854.671 383.839 765.976 401.645 677.281 415.152C588.586 428.046 499.892 437.256 411.197 415.152C322.502 393.049 233.807 339.632 145.112 317.529C56.417 295.426 -32.2779 304.635 -76.6254 308.933L-120.973 313.231V180.611H-76.6254C-32.2779 180.611 56.417 180.611 145.112 180.611C233.807 180.611 322.502 180.611 411.197 180.611C499.892 180.611 588.586 180.611 677.281 180.611C765.976 180.611 854.671 180.611 899.019 180.611H943.366V366.034Z" fill="#0A1361"/>
<path fill-rule="evenodd" clip-rule="evenodd" d="M799.087 -107.118L765.791 -112.748C732.496 -118.002 665.906 -128.886 599.315 -112.748C532.724 -96.6092 466.134 -53.0731 399.543 -56.0756C332.953 -58.7027 266.362 -107.118 199.772 -131.513C133.181 -155.908 66.5906 -155.908 33.2953 -155.908H1.43122e-05V6.2261H33.2953C66.5906 6.2261 133.181 6.2261 199.772 6.2261C266.362 6.2261 332.953 6.2261 399.543 6.2261C466.134 6.2261 532.724 6.2261 599.315 6.2261C665.906 6.2261 732.496 6.2261 765.791 6.2261H799.087V-107.118Z" fill="#0A1361"/>
<path d="M600.102 388.571C600.411 388.186 600.704 387.804 600.976 387.397C601.529 386.572 602.138 385.774 602.733 384.965C603.238 384.279 603.935 383.647 604.514 383.017C605.525 381.917 606.575 380.891 607.461 379.707C607.978 379.018 608.445 378.305 608.951 377.609C609.474 376.889 609.731 376.041 610.23 375.312C610.506 374.909 609.514 374.227 609.246 373.947C608.933 373.62 608.482 373.439 608.117 373.17C607.564 372.762 606.955 372.356 606.352 372.01C604.806 371.124 603.348 370.124 601.952 369.053C601.172 368.455 600.511 367.706 599.697 367.153C599.567 367.064 599.378 367.421 599.3 367.501C598.798 368.022 598.325 368.539 597.77 369.024C596.57 370.073 595.323 371.129 594.046 372.098C593.099 372.818 592.109 373.486 591.221 374.267C590.459 374.935 589.739 375.642 588.99 376.321C588.488 376.776 588.061 377.282 587.569 377.741C587.412 377.888 587.265 378.038 587.116 378.189C587.078 378.227 587.17 378.185 587.205 378.24C587.339 378.453 587.598 378.626 587.788 378.798C587.972 378.964 588.069 379.166 588.241 379.341C588.551 379.654 588.728 380.112 588.954 380.478C589.198 380.873 589.527 381.278 589.828 381.641C590.702 382.697 591.434 383.857 592.289 384.924C592.775 385.531 593.326 386.077 593.852 386.656C593.886 386.694 594.135 387.045 594.236 387.045C594.394 387.045 594.618 386.551 594.746 386.458C595.034 386.249 595.172 385.891 595.402 385.636C595.703 385.303 595.98 384.956 596.313 384.646C596.772 384.218 597.2 383.646 597.714 383.288C598.199 382.95 598.593 382.451 599.005 382.041C599.53 381.517 600.137 381.055 600.644 380.522C601.195 379.944 601.669 379.36 602.11 378.68C602.255 378.457 602.391 378.24 602.551 378.031C602.825 377.671 602.969 377.089 603.344 376.816C603.366 376.801 601.175 375.029 600.903 374.887C600.55 374.701 600.229 374.37 599.891 374.149C599.775 374.073 599.526 373.808 599.373 373.808C599.243 373.808 599.028 374.156 598.973 374.245C598.801 374.521 598.483 374.817 598.248 375.059C597.676 375.646 597.062 376.138 596.455 376.688C595.679 377.391 594.677 377.848 593.892 378.548C593.83 378.604 593.3 378.965 593.342 379.047C593.357 379.077 593.537 379.068 593.581 379.098C593.803 379.255 593.982 379.464 594.2 379.619C594.581 379.891 594.952 380.139 595.293 380.449" stroke="#30419A" stroke-width="3" stroke-linecap="round" stroke-linejoin="round"/>
<path fill-rule="evenodd" clip-rule="evenodd" d="M717.375 249.678C712.756 190.009 464.939 74.8404 418.933 131.358C372.926 187.876 417.156 293.945 513.568 321.107C609.981 348.268 721.994 309.348 717.375 249.678Z" fill="#FFEE94"/>
<path fill-rule="evenodd" clip-rule="evenodd" d="M669.829 282.841C671.492 264.097 760.718 227.918 777.282 245.672C793.847 263.427 789.654 300.771 754.941 309.303C720.228 317.836 668.166 301.586 669.829 282.841Z" fill="#AFE1B1"/>
<path d="M421.7 57.6655C421.432 57.6852 421.786 58.6176 420.575 58.6896C420.431 58.585 419.437 57.8369 419.277 57.8097C418.68 56.9792 418.578 56.2014 419.03 55.7899C419.423 55.4322 420.353 54.9342 420.981 54.9786C421.53 55.0174 423.005 55.4064 423.426 55.786C423.98 56.2864 425.078 57.0429 424.959 57.7518C424.856 58.3637 424.964 59.0666 424.457 59.5273C422.954 60.8943 420.788 61.4688 419.069 61.1194C417.443 60.7889 415.345 58.0745 414.889 56.6911C414.336 55.0155 415.031 53.9785 415.529 52.5322C416.199 51.9234 416.463 51.6833 417.24 51.3061C418.487 50.9747 418.235 50.8342 418.93 50.7448C421.43 50.4233 423.405 50.2277 425.908 51.2448C428.016 52.1014 428.323 52.8646 429.55 54.4902C430.328 55.5212 429.806 56.8805 430.03 58.4015C429.566 59.488 429.79 59.488 429.31 60.3572C428.841 60.7842 428.354 61.8057 427.872 62.1845C426.92 62.9321 426.082 64.1762 424.876 64.5995C423.071 65.2327 421.262 65.2568 419.296 65.0846C418.165 64.9855 416.72 64.6928 415.628 64.249C414.429 63.7617 413.659 63.0525 412.698 62.1845C410.642 60.3283 408.993 57.4421 408.768 54.9544C408.491 51.8751 410.468 48.0934 413.246 46.7115C414.631 46.0229 415.75 45.3486 417.322 44.9292C418.828 44.5275 420.877 44.6795 422.803 45.1036C423.157 45.2584 423.48 45.2134 423.837 45.3047C424.276 45.4171 424.873 45.6747 425.327 45.7822C426.176 45.9833 426.596 46.3447 427.325 46.7115C428.284 46.9677 429.525 48.1153 430.255 48.7743C431.805 50.1743 433.358 51.8674 434.041 53.6499" stroke="#047864" stroke-width="2" stroke-linecap="round" stroke-linejoin="round"/>
<g clip-path="url(#clip0)">
<path d="M223.415 38.5681C223.972 37.8021 224.5 37.0424 224.991 36.2337C225.986 34.5938 227.084 33.0061 228.157 31.3973C229.066 30.0329 230.322 28.7768 231.366 27.5238C233.188 25.3374 235.08 23.2965 236.677 20.9439C237.608 19.5721 238.449 18.1551 239.362 16.7712C240.305 15.3403 240.768 13.6531 241.667 12.2047C242.164 11.4031 240.376 10.0469 239.894 9.49105C239.33 8.83995 238.516 8.47997 237.859 7.94456C236.863 7.13322 235.765 6.32663 234.678 5.6394C231.893 3.87721 229.264 1.88792 226.749 -0.240198C225.344 -1.4291 224.153 -2.91843 222.686 -4.0189C222.45 -4.19525 222.111 -3.48649 221.971 -3.32589C221.065 -2.29057 220.214 -1.26256 219.213 -0.298556C217.05 1.7863 214.803 3.88635 212.502 5.81448C210.795 7.2451 209.012 8.574 207.41 10.1257C206.038 11.4552 204.741 12.8604 203.391 14.2108C202.487 15.1151 201.716 16.1221 200.83 17.0339C200.547 17.3253 200.282 17.6249 200.013 17.9238C199.944 18.0004 200.112 17.9175 200.174 18.026C200.416 18.4493 200.882 18.7927 201.224 19.1348C201.556 19.4661 201.731 19.868 202.041 20.2144C202.6 20.8377 202.918 21.7491 203.325 22.4758C203.765 23.2613 204.359 24.0659 204.901 24.7882C206.475 26.8875 207.796 29.1946 209.336 31.3171C210.211 32.5223 211.204 33.6097 212.152 34.7602C212.214 34.8351 212.662 35.5334 212.845 35.5334C213.129 35.5334 213.533 34.5511 213.764 34.3663C214.283 33.9515 214.531 33.2398 214.946 32.7323C215.488 32.0699 215.987 31.3804 216.587 30.7627C217.414 29.9119 218.186 28.7756 219.111 28.0636C219.986 27.391 220.697 26.3991 221.438 25.5834C222.385 24.5418 223.478 23.6228 224.393 22.5633C225.384 21.4151 226.239 20.2531 227.033 18.9013C227.294 18.4568 227.541 18.0256 227.828 17.6102C228.323 16.8957 228.581 15.7373 229.258 15.1956C229.297 15.1648 225.349 11.6417 224.859 11.3585C224.223 10.9899 223.644 10.3312 223.036 9.89226C222.826 9.74062 222.378 9.21385 222.102 9.21385C221.867 9.21385 221.479 9.90518 221.38 10.0819C221.071 10.6318 220.498 11.2207 220.074 11.7014C219.044 12.8689 217.937 13.8458 216.842 14.9403C215.444 16.3389 213.64 17.2465 212.225 18.6387C212.112 18.7495 211.158 19.4672 211.233 19.6308C211.26 19.691 211.585 19.6725 211.663 19.7329C212.064 20.0449 212.387 20.4604 212.779 20.7688C213.467 21.3088 214.134 21.8029 214.749 22.4174" stroke="#30419A" stroke-width="3" stroke-linecap="round" stroke-linejoin="round"/>
</g>
<path fill-rule="evenodd" clip-rule="evenodd" d="M395.471 333.663C398.824 336.452 415.489 332.916 414.462 328.392C413.436 323.868 405.938 320.255 400.388 322.506C394.838 324.758 392.117 330.873 395.471 333.663Z" fill="#FFE142"/>
<path fill-rule="evenodd" clip-rule="evenodd" d="M60.3493 286.422C63.3204 288.868 78.8172 285.045 78.0617 280.926C77.3062 276.808 70.5528 273.748 65.3466 276.007C60.1404 278.266 57.3781 283.976 60.3493 286.422Z" fill="#696FF8"/>
<path fill-rule="evenodd" clip-rule="evenodd" d="M215.315 84.3096C215.552 81.2442 228.263 75.3277 230.623 78.2311C232.982 81.1346 232.385 87.2418 227.44 88.6371C222.495 90.0325 215.078 87.375 215.315 84.3096Z" fill="#88E78C"/>
<path fill-rule="evenodd" clip-rule="evenodd" d="M722.68 106.158C719.984 104.298 720.42 93.1323 724.161 93.2973C727.903 93.4623 733.214 97.2466 732.216 101.084C731.217 104.921 725.375 108.019 722.68 106.158Z" fill="#FF8F31"/>
<g clip-path="url(#clip1)">
<mask id="mask1" mask-type="alpha" maskUnits="userSpaceOnUse" x="-15" y="205" width="33" height="62">
<rect x="17.7574" y="205.195" width="61" height="32" transform="rotate(90 17.7574 205.195)" fill="#C4C4C4"/>
</mask>
<g mask="url(#mask1)">
<path fill-rule="evenodd" clip-rule="evenodd" d="M-11.5054 257.045C-8.57638 255.833 -5.34502 253.161 -3.54794 250.317C-3.06737 249.556 -2.46864 248.757 -1.90719 248.007L-1.90717 248.007L-1.90715 248.007C-1.65809 247.674 -1.41636 247.352 -1.19554 247.046C-0.424809 245.981 0.181661 245.018 0.502992 244.081C1.64569 240.749 2.16861 238.293 2.38872 234.978C2.47021 233.75 2.01559 232.504 1.25082 231.116C0.921046 230.518 0.558859 229.937 0.182306 229.332L0.182282 229.332L0.0088893 229.053C-0.416648 228.368 -0.860447 227.641 -1.21229 226.915C-3.69492 221.794 -9.223 218.6 -15.2416 218.125C-15.5464 218.1 -15.8228 217.987 -16.0468 217.812C-16.2075 217.854 -16.3661 217.889 -16.5183 217.92C-17.0501 218.026 -17.625 218.092 -18.1738 218.134C-19.2721 218.218 -20.3702 218.212 -21.0121 218.198C-21.1149 218.195 -21.3981 218.235 -21.8785 218.4C-22.3276 218.554 -22.8455 218.782 -23.3736 219.055C-24.4675 219.62 -25.4073 220.273 -25.8001 220.674C-28.9432 223.888 -31.5905 228.662 -32.1013 232.874C-33.2191 242.092 -29.1665 250.873 -21.657 255.175C-20.4318 255.877 -18.595 256.677 -16.6686 257.121C-14.7102 257.574 -12.8743 257.611 -11.5054 257.045ZM-14.4844 215.181C-14.9306 214.581 -15.7645 214.396 -16.4302 214.775C-16.5025 214.817 -16.7104 214.899 -17.1064 214.978C-17.4781 215.052 -17.9234 215.106 -18.4023 215.143C-19.3593 215.216 -20.3462 215.212 -20.944 215.199C-21.5804 215.184 -22.2643 215.36 -22.8537 215.563C-23.4742 215.776 -24.1286 216.068 -24.7501 216.389C-25.9552 217.011 -27.2233 217.839 -27.9449 218.577C-31.4313 222.141 -34.4711 227.496 -35.0795 232.513C-36.3255 242.788 -31.8215 252.809 -23.1484 257.779C-21.6999 258.608 -19.5899 259.526 -17.3436 260.045C-15.1294 260.556 -12.5669 260.73 -10.359 259.817C-6.8608 258.37 -3.14224 255.291 -1.0117 251.919C-0.594638 251.259 -0.119933 250.626 0.399972 249.933L0.399986 249.933C0.666988 249.577 0.945912 249.205 1.23507 248.805C2.03517 247.699 2.86704 246.436 3.34076 245.054C4.55972 241.5 5.14265 238.783 5.38213 235.177C5.52135 233.08 4.72894 231.212 3.87803 229.668C3.50659 228.994 3.09813 228.339 2.72451 227.739L2.55732 227.47C2.12807 226.779 1.76229 226.174 1.48716 225.606C-1.47847 219.489 -7.83084 215.862 -14.4844 215.181ZM-12.6313 244.072C-11.3859 243.33 -10.2894 242.336 -9.67144 241.482C-9.59373 241.374 -9.51059 241.253 -9.40936 241.106L-9.40928 241.106L-9.36446 241.04C-9.24806 240.871 -9.11359 240.676 -8.97012 240.482C-8.74029 240.17 -8.43189 239.781 -8.05742 239.455C-8.05685 239.441 -8.05611 239.427 -8.05521 239.412C-8.04201 239.202 -7.99396 238.978 -7.89344 238.751C-7.79553 238.529 -7.66454 238.343 -7.52423 238.187C-7.2987 237.936 -7.2362 237.739 -7.20151 237.409C-7.18581 237.26 -7.17973 237.128 -7.17166 236.952C-7.16754 236.863 -7.1629 236.762 -7.1562 236.641C-7.13847 236.323 -7.10725 235.934 -7.01514 235.506C-6.83212 234.655 -7.13277 233.647 -7.9166 232.565C-8.511 231.745 -9.30002 231.005 -10.067 230.444C-10.3046 230.489 -10.5564 230.477 -10.8028 230.398C-11.4944 230.176 -12.0401 229.859 -12.4402 229.627L-12.4406 229.627L-12.4409 229.627C-12.4866 229.601 -12.5304 229.575 -12.5723 229.551C-12.992 229.31 -13.2992 229.155 -13.7128 229.062C-14.1788 228.957 -14.8929 228.745 -15.5684 228.5C-16.134 228.295 -16.8666 227.999 -17.3831 227.65L-17.384 227.65C-17.5029 227.637 -17.7021 227.637 -17.989 227.668C-18.5595 227.729 -19.2947 227.894 -20.0698 228.13C-20.8386 228.364 -21.5945 228.652 -22.1995 228.936C-22.5023 229.078 -22.7495 229.21 -22.9337 229.325C-23.0872 229.42 -23.1564 229.478 -23.1736 229.493C-23.1791 229.497 -23.1793 229.498 -23.1752 229.493C-23.7794 230.165 -24.5196 231.585 -25.0339 233.188C-25.2836 233.966 -25.4611 234.73 -25.5434 235.396C-25.6288 236.089 -25.5969 236.562 -25.5236 236.821C-25.2273 237.866 -24.6116 238.538 -23.6983 239.311C-23.5463 239.439 -23.3791 239.575 -23.2018 239.719C-22.3806 240.386 -21.3399 241.231 -20.5604 242.374C-20.1844 242.926 -19.4096 243.579 -18.4311 244.134C-17.4567 244.687 -16.4959 245.021 -15.8779 245.089C-15.0847 245.176 -13.9116 244.835 -12.6313 244.072ZM-17.3136 227.661C-17.3138 227.661 -17.318 227.66 -17.3256 227.658C-17.3172 227.66 -17.3134 227.661 -17.3136 227.661ZM-10.4628 227.296C-10.6113 227.218 -10.7678 227.128 -10.9525 227.022L-11.0798 226.949C-11.5662 226.67 -12.1904 226.329 -13.0558 226.135C-13.3675 226.065 -13.9564 225.893 -14.5455 225.68C-14.8359 225.574 -15.1059 225.466 -15.3279 225.364C-15.4384 225.313 -15.5285 225.267 -15.5983 225.228C-15.6327 225.209 -15.6592 225.193 -15.6785 225.181C-15.6933 225.172 -15.7017 225.166 -15.7049 225.163C-15.706 225.163 -15.7065 225.162 -15.7064 225.162C-16.1654 224.813 -16.6954 224.706 -17.069 224.666C-17.4736 224.624 -17.9019 224.641 -18.3107 224.685C-19.1319 224.774 -20.0621 224.992 -20.9434 225.26C-21.8309 225.53 -22.7224 225.868 -23.4729 226.219C-24.1504 226.537 -24.9378 226.967 -25.4057 227.487C-26.4166 228.611 -27.3185 230.489 -27.8904 232.271C-28.1839 233.186 -28.4106 234.136 -28.5208 235.029C-28.6277 235.896 -28.6404 236.826 -28.4098 237.639C-27.8677 239.551 -26.6975 240.703 -25.6356 241.601C-25.3986 241.802 -25.1745 241.985 -24.9624 242.159L-24.9621 242.159C-24.1728 242.806 -23.5491 243.316 -23.0391 244.064C-22.3004 245.148 -21.0877 246.076 -19.9116 246.744C-18.7314 247.413 -17.3707 247.942 -16.2058 248.071C-14.4556 248.263 -12.5934 247.542 -11.0955 246.649C-9.56264 245.735 -8.1381 244.48 -7.24104 243.241C-7.13925 243.1 -7.0322 242.944 -6.93379 242.8L-6.89111 242.738C-6.77585 242.57 -6.66662 242.412 -6.55631 242.263C-6.31931 241.942 -6.15087 241.762 -6.04632 241.684C-5.74377 241.456 -5.43072 241.157 -5.22992 240.75C-5.06647 240.419 -5.0233 240.11 -5.0237 239.864C-4.47291 239.125 -4.28795 238.389 -4.21796 237.723C-4.19256 237.481 -4.18008 237.212 -4.1702 236.999L-4.17019 236.999L-4.17019 236.999C-4.16692 236.928 -4.16393 236.864 -4.16084 236.808C-4.14636 236.548 -4.12583 236.339 -4.0823 236.137C-3.64596 234.11 -4.45674 232.227 -5.48727 230.805C-6.53009 229.365 -7.94797 228.178 -9.1868 227.427C-9.5864 227.185 -10.054 227.152 -10.4628 227.296ZM-7.80018 239.245C-7.80011 239.245 -7.80137 239.247 -7.80416 239.249C-7.80164 239.247 -7.80024 239.245 -7.80018 239.245ZM-12.8347 233.93C-12.7001 234.089 -12.5461 234.272 -12.3922 234.473C-12.2396 234.644 -12.0956 234.843 -11.9788 235.07C-11.9556 235.109 -11.9329 235.147 -11.9108 235.186C-11.6394 235.663 -11.3483 236.369 -11.4821 237.193C-11.6235 238.063 -12.1761 238.711 -12.8568 239.175C-13.4481 239.578 -14.1016 239.756 -14.7603 239.713C-15.3912 239.672 -15.9311 239.436 -16.3523 239.171C-17.1682 238.659 -17.779 237.887 -18.1273 237.376C-18.4916 236.842 -18.7824 236.247 -18.8476 235.614C-18.9202 234.908 -18.6994 234.219 -18.1696 233.715C-17.6999 233.268 -17.12 233.092 -16.6659 233.024C-16.4339 232.989 -16.1982 232.977 -15.9654 232.981C-15.8719 232.861 -15.7583 232.753 -15.6257 232.663C-14.9412 232.196 -14.008 232.373 -13.5413 233.057C-13.4015 233.262 -13.2186 233.478 -12.9679 233.773L-12.8347 233.93ZM-14.8701 236.552C-14.8592 236.476 -14.8424 236.401 -14.8195 236.326C-14.8894 236.284 -14.9766 236.238 -15.0814 236.194C-15.1617 236.16 -15.2459 236.129 -15.332 236.102C-15.1819 236.278 -15.0236 236.436 -14.8701 236.552ZM-16.2734 236.002C-16.2735 236.002 -16.2707 236.001 -16.2646 235.999C-16.2702 236.002 -16.2732 236.002 -16.2734 236.002Z" fill="#777777"/>
<circle cx="12.0407" cy="234.912" r="2" transform="rotate(118.843 12.0407 234.912)" fill="#C4C4C4"/>
<circle cx="9.75745" cy="225.195" r="2" transform="rotate(90 9.75745 225.195)" fill="#C4C4C4"/>
<circle cx="4.75745" cy="218.195" r="2" transform="rotate(90 4.75745 218.195)" fill="#C4C4C4"/>
</g>
</g>
<g clip-path="url(#clip2)">
<path d="M601.613 99.0042L591.952 91.1275L589.825 82.0618L591.893 81.6634L591.454 79.7894L579.047 82.1794L579.486 84.0535L581.554 83.6551L583.68 92.7209L578.389 103.478C578.07 104.127 577.955 104.842 578.057 105.547C578.159 106.251 578.474 106.916 578.967 107.468C579.46 108.02 580.112 108.437 580.85 108.674C581.589 108.911 582.386 108.959 583.152 108.811L599.654 105.632C600.421 105.484 601.127 105.148 601.696 104.659C602.264 104.17 602.672 103.548 602.875 102.862C603.077 102.176 603.067 101.453 602.844 100.772C602.621 100.091 602.194 99.4792 601.612 99.0044L601.613 99.0042ZM585.891 92.9316L583.622 83.2568L587.758 82.4601L590.027 92.1349L593.598 95.0461L583.935 96.9076L585.891 92.9316ZM599.216 103.758L582.714 106.937C582.329 107.01 581.929 106.986 581.558 106.867C581.187 106.748 580.86 106.538 580.612 106.261C580.365 105.984 580.207 105.65 580.155 105.296C580.104 104.943 580.161 104.583 580.321 104.258L582.871 99.0712L595.541 96.6306L600.199 100.428C600.492 100.667 600.705 100.974 600.817 101.316C600.928 101.658 600.934 102.021 600.832 102.366C600.73 102.71 600.525 103.022 600.24 103.268C599.955 103.514 599.6 103.683 599.216 103.758Z" fill="#30419A"/>
<circle r="3" transform="matrix(0.981946 -0.189164 0.228334 0.973583 591.331 83.433)" stroke="#30419A" stroke-width="2"/>
<circle r="2" transform="matrix(0.981946 -0.189164 0.228334 0.973583 598.045 77.0517)" stroke="#30419A" stroke-width="2"/>
<circle r="1" transform="matrix(0.981946 -0.189164 0.228334 0.973583 589.95 70.9795)" stroke="#30419A"/>
</g>
<path d="M48.0198 99.3188L45.727 101.397C45.6175 101.496 45.5306 101.614 45.4713 101.744C45.412 101.873 45.3815 102.012 45.3815 102.153C45.3815 102.293 45.412 102.432 45.4713 102.562C45.5306 102.691 45.6175 102.809 45.727 102.908L49.0627 105.931C49.2838 106.131 49.5836 106.244 49.8963 106.244C50.2089 106.244 50.5087 106.131 50.7298 105.931L53.0234 103.853C53.0508 103.828 53.0725 103.799 53.0874 103.766C53.1022 103.734 53.1098 103.699 53.1098 103.664C53.1098 103.629 53.1022 103.594 53.0874 103.562C53.0725 103.529 53.0508 103.5 53.0234 103.475L48.437 99.3188C48.4096 99.294 48.3771 99.2743 48.3413 99.2608C48.3055 99.2474 48.2672 99.2405 48.2284 99.2405C48.1897 99.2405 48.1513 99.2474 48.1155 99.2608C48.0797 99.2743 48.0472 99.294 48.0198 99.3188V99.3188Z" fill="#0094F5" fill-opacity="0.53"/>
<path d="M38.0157 90.2498L35.7229 92.3285C35.5019 92.5289 35.3778 92.8006 35.3778 93.0839C35.3778 93.3672 35.5019 93.639 35.7229 93.8394L39.0579 96.8625C39.1674 96.9618 39.2974 97.0405 39.4405 97.0943C39.5835 97.148 39.7369 97.1756 39.8918 97.1756C40.0467 97.1756 40.2 97.148 40.3431 97.0943C40.4862 97.0405 40.6162 96.9618 40.7257 96.8625L43.0185 94.7845C43.0459 94.7597 43.0677 94.7302 43.0825 94.6978C43.0973 94.6654 43.105 94.6306 43.105 94.5955C43.105 94.5604 43.0973 94.5256 43.0825 94.4932C43.0677 94.4607 43.0459 94.4313 43.0185 94.4065L38.4329 90.2498C38.4055 90.2249 38.373 90.2052 38.3372 90.1918C38.3014 90.1783 38.2631 90.1714 38.2243 90.1714C38.1856 90.1714 38.1472 90.1783 38.1114 90.1918C38.0756 90.2052 38.0431 90.2249 38.0157 90.2498V90.2498Z" fill="#0094F5" fill-opacity="0.53"/>
<path d="M59.9081 84.0194C58.9228 83.1254 57.7528 82.416 56.4649 81.9319C55.177 81.4479 53.7965 81.1985 52.4022 81.1981C51.008 81.1977 49.6273 81.4464 48.3391 81.9298C47.0509 82.4132 45.8804 83.1219 44.8945 84.0154L40.0996 88.3605C40.0722 88.3853 40.0504 88.4148 40.0356 88.4472C40.0208 88.4796 40.0131 88.5144 40.0131 88.5495C40.0131 88.5846 40.0208 88.6194 40.0356 88.6518C40.0504 88.6843 40.0722 88.7137 40.0996 88.7385L44.686 92.8945C44.7133 92.9194 44.7459 92.9391 44.7816 92.9525C44.8174 92.966 44.8558 92.9729 44.8945 92.9729C44.9333 92.9729 44.9716 92.966 45.0074 92.9525C45.0432 92.9391 45.0757 92.9194 45.1031 92.8945L49.8936 88.5495C50.2258 88.2485 50.6207 88.0105 51.0554 87.8493C51.4901 87.6881 51.9559 87.607 52.4255 87.6106C52.8952 87.6143 53.3593 87.7027 53.7909 87.8707C54.2225 88.0386 54.6128 88.2828 54.9392 88.5889C56.2879 89.8527 56.2267 91.8779 54.8552 93.121L50.1059 97.4266C50.0785 97.4514 50.0568 97.4809 50.0419 97.5133C50.0271 97.5458 50.0194 97.5805 50.0194 97.6156C50.0194 97.6508 50.0271 97.6855 50.0419 97.718C50.0568 97.7504 50.0785 97.7799 50.1059 97.8047L54.6916 101.961C54.7189 101.986 54.7514 102.006 54.7872 102.019C54.823 102.033 54.8614 102.04 54.9001 102.04C54.9389 102.04 54.9772 102.033 55.013 102.019C55.0488 102.006 55.0813 101.986 55.1087 101.961L59.8314 97.6811C63.9859 93.9178 64.0596 87.7867 59.9081 84.0194V84.0194Z" fill="#0094F5" fill-opacity="0.53"/>
</g>
<defs>
<clipPath id="clip0">
<rect width="26.6362" height="25.6494" fill="white" transform="translate(196.997 -8.04688)"/>
</clipPath>
<clipPath id="clip1">
<rect width="30.6787" height="18.3124" fill="white" transform="translate(17.7574 205.195) rotate(90)"/>
</clipPath>
<clipPath id="clip2">
<rect width="25.4276" height="37.3913" fill="white" transform="matrix(0.981946 -0.189164 0.228334 0.973583 570.459 73.2078)"/>
</clipPath>
</defs>
</svg>