<svg width="1440" height="931" viewBox="0 0 1440 931" fill="none" xmlns="http://www.w3.org/2000/svg">
<mask id="mask0" mask-type="alpha" maskUnits="userSpaceOnUse" x="0" y="0" width="1440" height="931">
<rect width="1440" height="931" fill="#C4C4C4"/>
</mask>
<g mask="url(#mask0)">
<path fill-rule="evenodd" clip-rule="evenodd" d="M1661.14 672.751L1589.17 722.299C1517.2 771.846 1373.26 870.941 1228.19 905.679C1083.12 940.418 937.482 942.977 790.714 881.18C643.946 819.383 498.242 761.643 351.142 737.456C210.452 710.8 34.3734 753.494 -37.5967 803.042L-84.115 839.226L-89.0462 558.665L-16.2276 557.385C56.5909 556.105 202.228 553.545 347.865 550.986C493.502 548.426 639.139 545.866 784.775 543.306C930.412 540.747 1076.05 538.187 1221.69 535.627C1367.32 533.068 1512.96 530.508 1585.78 529.228L1658.6 527.948L1661.14 672.751Z" fill="#0099FF" fill-opacity="0.67"/>
<path fill-rule="evenodd" clip-rule="evenodd" d="M1264.68 586.998L1209.22 619.278C1153.76 651.558 1042.84 716.119 930.367 740.552C817.897 764.986 703.879 749.293 589.086 713.536C474.293 677.78 358.727 621.96 245.483 626.33C132.239 630.7 21.3175 695.26 -34.1431 727.54L-89.6038 759.821L-97.7335 549.156L-41.1115 546.971C15.5105 544.785 128.755 540.415 241.999 536.045C355.243 531.675 468.487 527.305 581.731 522.935C694.975 518.564 808.219 514.194 921.463 509.824C1034.71 505.454 1147.95 501.084 1204.57 498.898L1261.19 496.713L1264.68 586.998Z" fill="#0099FF" fill-opacity="0.3"/>
<path d="M3.05176e-05 -16.2762H1440V552.545H3.05176e-05V-16.2762Z" fill="#0A1361"/>
<path fill-rule="evenodd" clip-rule="evenodd" d="M1700 727.803L1620.08 746.115C1540.17 763.206 1380.33 798.61 1220.5 825.468C1060.67 851.105 900.833 869.417 741 825.468C581.167 781.518 421.333 675.308 261.5 631.359C101.667 587.409 -58.1667 605.721 -138.083 614.267L-218 622.813V359.117H-138.083C-58.1667 359.117 101.667 359.117 261.5 359.117C421.333 359.117 581.167 359.117 741 359.117C900.833 359.117 1060.67 359.117 1220.5 359.117C1380.33 359.117 1540.17 359.117 1620.08 359.117H1700V727.803Z" fill="#0A1361"/>
<path fill-rule="evenodd" clip-rule="evenodd" d="M1440 -212.988L1380 -224.181C1320 -234.629 1200 -256.27 1080 -224.181C960 -192.093 840 -105.528 720 -111.498C600 -116.721 480 -212.988 360 -261.494C240 -310 120 -310 60 -310H3.05176e-05V12.3798H60C120 12.3798 240 12.3798 360 12.3798C480 12.3798 600 12.3798 720 12.3798C840 12.3798 960 12.3798 1080 12.3798C1200 12.3798 1320 12.3798 1380 12.3798H1440V-212.988Z" fill="#0A1361"/>
<path d="M1081.42 772.615C1081.98 771.849 1082.5 771.089 1082.99 770.281C1083.99 768.641 1085.09 767.053 1086.16 765.444C1087.07 764.08 1088.33 762.824 1089.37 761.571C1091.19 759.384 1093.08 757.343 1094.68 754.991C1095.61 753.619 1096.45 752.202 1097.36 750.818C1098.31 749.387 1098.77 747.7 1099.67 746.252C1100.17 745.45 1098.38 744.094 1097.9 743.538C1097.33 742.887 1096.52 742.527 1095.86 741.991C1094.87 741.18 1093.77 740.374 1092.68 739.686C1089.9 737.924 1087.27 735.935 1084.75 733.807C1083.35 732.618 1082.16 731.128 1080.69 730.028C1080.45 729.852 1080.11 730.56 1079.97 730.721C1079.07 731.756 1078.22 732.784 1077.22 733.748C1075.05 735.833 1072.81 737.933 1070.51 739.861C1068.8 741.292 1067.02 742.621 1065.41 744.173C1064.04 745.502 1062.74 746.907 1061.39 748.258C1060.49 749.162 1059.72 750.169 1058.83 751.081C1058.55 751.372 1058.29 751.672 1058.02 751.971C1057.95 752.047 1058.11 751.964 1058.18 752.073C1058.42 752.496 1058.89 752.84 1059.23 753.182C1059.56 753.513 1059.73 753.915 1060.04 754.261C1060.6 754.885 1060.92 755.796 1061.33 756.523C1061.77 757.308 1062.36 758.113 1062.9 758.835C1064.48 760.934 1065.8 763.241 1067.34 765.364C1068.21 766.569 1069.21 767.657 1070.15 768.807C1070.22 768.882 1070.67 769.58 1070.85 769.58C1071.13 769.58 1071.54 768.598 1071.77 768.413C1072.29 767.998 1072.53 767.287 1072.95 766.779C1073.49 766.117 1073.99 765.427 1074.59 764.81C1075.42 763.959 1076.19 762.822 1077.11 762.11C1077.99 761.438 1078.7 760.446 1079.44 759.63C1080.39 758.589 1081.48 757.67 1082.4 756.61C1083.39 755.462 1084.24 754.3 1085.04 752.948C1085.3 752.504 1085.54 752.073 1085.83 751.657C1086.33 750.943 1086.58 749.784 1087.26 749.242C1087.3 749.212 1083.35 745.689 1082.86 745.405C1082.23 745.037 1081.65 744.378 1081.04 743.939C1080.83 743.787 1080.38 743.261 1080.1 743.261C1079.87 743.261 1079.48 743.952 1079.38 744.129C1079.07 744.679 1078.5 745.268 1078.08 745.748C1077.05 746.916 1075.94 747.893 1074.85 748.987C1073.45 750.386 1071.64 751.293 1070.23 752.686C1070.12 752.796 1069.16 753.514 1069.24 753.678C1069.26 753.738 1069.59 753.719 1069.67 753.78C1070.07 754.092 1070.39 754.507 1070.78 754.816C1071.47 755.356 1072.14 755.85 1072.75 756.464" stroke="#30419A" stroke-width="3" stroke-linecap="round" stroke-linejoin="round"/>
<path fill-rule="evenodd" clip-rule="evenodd" d="M1292.75 496.448C1284.43 377.804 837.847 148.809 754.941 261.186C672.035 373.563 751.739 584.465 925.479 638.472C1099.22 692.479 1301.07 615.092 1292.75 496.448Z" fill="#FFEE94"/>
<path fill-rule="evenodd" clip-rule="evenodd" d="M1207.07 562.387C1210.07 525.117 1370.86 453.181 1400.71 488.482C1430.56 523.784 1423 598.038 1360.45 615.003C1297.89 631.969 1204.07 599.657 1207.07 562.387Z" fill="#AFE1B1"/>
<path d="M759.928 114.659C759.444 114.698 760.083 116.552 757.899 116.695C757.641 116.487 755.85 115 755.561 114.946C754.486 113.295 754.301 111.748 755.116 110.93C755.825 110.219 757.5 109.228 758.633 109.317C759.622 109.394 762.28 110.167 763.037 110.922C764.036 111.917 766.015 113.421 765.801 114.831C765.616 116.047 765.809 117.445 764.896 118.361C762.188 121.079 758.284 122.221 755.186 121.527C752.255 120.87 748.476 115.472 747.654 112.722C746.658 109.39 747.91 107.328 748.808 104.452C750.014 103.242 750.489 102.764 751.89 102.014C754.137 101.355 753.684 101.076 754.936 100.898C759.441 100.259 763 99.8701 767.511 101.892C771.31 103.596 771.862 105.113 774.074 108.345C775.477 110.395 774.535 113.098 774.938 116.123C774.103 118.283 774.506 118.283 773.642 120.011C772.796 120.86 771.919 122.891 771.049 123.645C769.334 125.131 767.825 127.605 765.651 128.446C762.399 129.705 759.138 129.753 755.596 129.411C753.558 129.214 750.954 128.632 748.986 127.749C746.825 126.781 745.438 125.37 743.705 123.645C740.001 119.954 737.028 114.215 736.624 109.268C736.124 103.146 739.687 95.6265 744.694 92.8788C747.189 91.5096 749.206 90.1687 752.039 89.3349C754.753 88.5362 758.445 88.8384 761.915 89.6816C762.554 89.9895 763.135 89.9 763.778 90.0815C764.569 90.3049 765.646 90.8173 766.463 91.0309C767.993 91.4308 768.75 92.1494 770.064 92.8788C771.792 93.3881 774.029 95.6699 775.344 96.9803C778.138 99.7639 780.936 103.13 782.166 106.675" stroke="#047864" stroke-width="2" stroke-linecap="round" stroke-linejoin="round"/>
<path d="M381.418 30.615C381.975 29.849 382.503 29.0893 382.994 28.2806C383.989 26.6406 385.087 25.053 386.16 23.4442C387.069 22.0798 388.325 20.8237 389.369 19.5706C391.191 17.3843 393.082 15.3434 394.68 12.9907C395.611 11.619 396.452 10.2019 397.364 8.81812C398.308 7.38713 398.771 5.69993 399.67 4.25159C400.167 3.45 398.379 2.0938 397.897 1.53793C397.333 0.886827 396.519 0.526843 395.862 -0.00856972C394.866 -0.819906 393.767 -1.62649 392.681 -2.31372C389.896 -4.07591 387.267 -6.06521 384.752 -8.19332C383.347 -9.38222 382.156 -10.8716 380.689 -11.972C380.453 -12.1484 380.114 -11.4396 379.974 -11.279C379.068 -10.2437 378.217 -9.21569 377.216 -8.25168C375.053 -6.16682 372.806 -4.06677 370.505 -2.13865C368.798 -0.708023 367.015 0.620877 365.413 2.17257C364.041 3.5021 362.744 4.90725 361.394 6.25765C360.49 7.16194 359.719 8.16902 358.833 9.08074C358.55 9.37217 358.285 9.67173 358.016 9.9707C357.947 10.0473 358.115 9.96438 358.177 10.0728C358.419 10.4962 358.885 10.8396 359.227 11.1816C359.559 11.513 359.734 11.9149 360.044 12.2613C360.603 12.8846 360.921 13.796 361.328 14.5226C361.768 15.3082 362.362 16.1127 362.904 16.8351C364.478 18.9344 365.799 21.2415 367.339 23.3639C368.214 24.5691 369.207 25.6566 370.155 26.8071C370.217 26.882 370.665 27.5803 370.848 27.5803C371.132 27.5803 371.536 26.5979 371.767 26.4132C372.286 25.9983 372.534 25.2867 372.949 24.7791C373.491 24.1168 373.99 23.4272 374.59 22.8095C375.417 21.9587 376.188 20.8225 377.114 20.1105C377.988 19.4379 378.7 18.446 379.441 17.6302C380.388 16.5887 381.481 15.6697 382.396 14.6102C383.387 13.462 384.242 12.2999 385.036 10.9482C385.297 10.5036 385.544 10.0725 385.831 9.65703C386.326 8.94256 386.584 7.78418 387.261 7.24245C387.3 7.21167 383.352 3.68859 382.862 3.40539C382.226 3.03677 381.646 2.37807 381.039 1.93914C380.829 1.78749 380.381 1.26072 380.105 1.26072C379.869 1.26072 379.482 1.95206 379.383 2.1288C379.073 2.67867 378.501 3.26757 378.077 3.74825C377.047 4.91578 375.94 5.89265 374.845 6.98713C373.447 8.38574 371.643 9.29337 370.228 10.6856C370.115 10.7963 369.161 11.514 369.236 11.6777C369.263 11.7379 369.588 11.7193 369.666 11.7798C370.067 12.0918 370.39 12.5073 370.782 12.8157C371.469 13.3556 372.137 13.8498 372.752 14.4643" stroke="#30419A" stroke-width="3" stroke-linecap="round" stroke-linejoin="round"/>
<path fill-rule="evenodd" clip-rule="evenodd" d="M712.66 663.437C718.703 668.984 748.734 661.952 746.885 652.958C745.035 643.963 731.524 636.778 721.522 641.255C711.52 645.732 706.618 657.891 712.66 663.437Z" fill="#FFE142"/>
<path fill-rule="evenodd" clip-rule="evenodd" d="M108.753 569.506C114.107 574.37 142.033 566.769 140.672 558.58C139.31 550.39 127.14 544.306 117.758 548.798C108.377 553.29 103.399 564.642 108.753 569.506Z" fill="#696FF8"/>
<path fill-rule="evenodd" clip-rule="evenodd" d="M388.01 167.637C388.437 161.542 411.343 149.778 415.595 155.551C419.848 161.324 418.771 173.467 409.86 176.241C400.948 179.016 387.583 173.732 388.01 167.637Z" fill="#88E78C"/>
<path fill-rule="evenodd" clip-rule="evenodd" d="M1302.31 211.08C1297.45 207.38 1298.24 185.18 1304.98 185.508C1311.72 185.836 1321.29 193.36 1319.5 200.989C1317.7 208.619 1307.17 214.779 1302.31 211.08Z" fill="#FF8F31"/>
<g clip-path="url(#clip0)">
<mask id="mask1" mask-type="alpha" maskUnits="userSpaceOnUse" x="0" y="408" width="32" height="61">
<rect x="32" y="408" width="61" height="32" transform="rotate(90 32 408)" fill="#C4C4C4"/>
</mask>
<g mask="url(#mask1)">
<path fill-rule="evenodd" clip-rule="evenodd" d="M2.7388 459.851C5.66782 458.64 8.89918 455.968 10.6963 453.123C11.1768 452.363 11.7756 451.563 12.337 450.814L12.337 450.814L12.3371 450.814C12.5861 450.481 12.8278 450.158 13.0487 449.853C13.8194 448.788 14.4259 447.825 14.7472 446.888C15.8899 443.555 16.4128 441.099 16.6329 437.784C16.7144 436.557 16.2598 435.31 15.495 433.923C15.1652 433.325 14.8031 432.743 14.4265 432.138L14.4265 432.138L14.2531 431.86C13.8276 431.175 13.3838 430.447 13.0319 429.721C10.5493 424.601 5.02121 421.407 -0.997382 420.931C-1.30223 420.907 -1.57855 420.793 -1.8026 420.618C-1.96326 420.66 -2.12185 420.696 -2.27405 420.726C-2.80586 420.833 -3.38085 420.899 -3.92959 420.941C-5.02794 421.025 -6.12596 421.019 -6.76788 421.004C-6.87067 421.002 -7.15393 421.041 -7.63428 421.206C-8.08342 421.361 -8.6013 421.589 -9.12935 421.861C-10.2232 422.426 -11.1631 423.079 -11.5559 423.481C-14.699 426.694 -17.3463 431.468 -17.8571 435.681C-18.9749 444.899 -14.9223 453.679 -7.41281 457.982C-6.18758 458.684 -4.35076 459.483 -2.42438 459.928C-0.465999 460.38 1.36988 460.417 2.7388 459.851ZM-0.240181 417.988C-0.686414 417.388 -1.52034 417.202 -2.186 417.582C-2.25826 417.623 -2.46617 417.705 -2.86215 417.785C-3.23388 417.859 -3.67916 417.913 -4.15809 417.95C-5.11507 418.023 -6.10195 418.019 -6.69977 418.005C-7.33625 417.991 -8.02012 418.166 -8.60947 418.369C-9.23003 418.582 -9.88441 418.875 -10.5059 419.196C-11.711 419.818 -12.9791 420.645 -13.7007 421.383C-17.1871 424.948 -20.2269 430.303 -20.8353 435.319C-22.0813 445.595 -17.5773 455.616 -8.90423 460.585C-7.45568 461.415 -5.34565 462.332 -3.09944 462.851C-0.885217 463.362 1.67726 463.536 3.88515 462.623C7.38341 461.177 11.102 458.098 13.2325 454.726C13.6496 454.066 14.1243 453.432 14.6442 452.739L14.6442 452.739C14.9112 452.383 15.1901 452.011 15.4793 451.611C16.2794 450.505 17.1112 449.242 17.585 447.861C18.8039 444.306 19.3869 441.589 19.6263 437.983C19.7655 435.886 18.9731 434.018 18.1222 432.475C17.7508 431.801 17.3423 431.145 16.9687 430.545L16.8015 430.277C16.3723 429.586 16.0065 428.98 15.7314 428.413C12.7657 422.296 6.41336 418.669 -0.240181 417.988ZM1.61289 446.878C2.85826 446.136 3.95482 445.142 4.57276 444.288C4.65047 444.181 4.73361 444.06 4.83484 443.912L4.83493 443.912L4.87974 443.847C4.99614 443.677 5.13061 443.482 5.27408 443.288C5.50391 442.977 5.81231 442.588 6.18678 442.261C6.18736 442.247 6.18809 442.233 6.18899 442.219C6.20219 442.009 6.25024 441.784 6.35076 441.557C6.44867 441.336 6.57966 441.149 6.71997 440.993C6.9455 440.743 7.008 440.546 7.04269 440.216C7.0584 440.066 7.06447 439.934 7.07255 439.759C7.07666 439.669 7.0813 439.568 7.08801 439.448C7.10573 439.13 7.13695 438.74 7.22907 438.312C7.41208 437.462 7.11143 436.453 6.3276 435.371C5.7332 434.551 4.94418 433.811 4.17719 433.251C3.93961 433.296 3.68775 433.284 3.44136 433.204C2.74977 432.982 2.2041 432.666 1.80403 432.434L1.80361 432.434L1.80331 432.434C1.7576 432.407 1.71379 432.382 1.67188 432.358C1.25224 432.117 0.945004 431.961 0.53143 431.868C0.0653999 431.764 -0.648662 431.551 -1.32415 431.306C-1.88983 431.101 -2.62243 430.806 -3.13893 430.456L-3.13979 430.456C-3.25873 430.444 -3.45786 430.443 -3.74485 430.474C-4.31526 430.536 -5.05046 430.7 -5.82556 430.936C-6.59443 431.17 -7.35029 431.459 -7.95531 431.742C-8.25807 431.884 -8.50525 432.017 -8.68946 432.131C-8.84302 432.227 -8.91216 432.285 -8.92939 432.299C-8.93493 432.304 -8.9351 432.304 -8.93098 432.3C-9.53518 432.971 -10.2754 434.392 -10.7897 435.994C-11.0394 436.772 -11.2169 437.536 -11.2992 438.203C-11.3846 438.895 -11.3527 439.369 -11.2794 439.627C-10.9831 440.672 -10.3674 441.345 -9.45408 442.117C-9.30205 442.246 -9.13493 442.382 -8.95756 442.526C-8.13645 443.192 -7.0957 444.037 -6.31624 445.181C-5.94017 445.732 -5.16536 446.386 -4.18693 446.941C-3.21254 447.494 -2.2517 447.827 -1.63366 447.895C-0.840515 447.982 0.332615 447.641 1.61289 446.878ZM-3.0694 430.468C-3.06958 430.468 -3.07378 430.467 -3.08143 430.465C-3.07304 430.466 -3.06921 430.467 -3.0694 430.468ZM3.78143 430.102C3.63288 430.025 3.47644 429.935 3.29169 429.828L3.16436 429.755C2.67802 429.476 2.0538 429.135 1.1884 428.941C0.876743 428.871 0.287848 428.7 -0.301261 428.486C-0.591652 428.381 -0.861736 428.272 -1.08368 428.17C-1.19416 428.119 -1.28426 428.074 -1.35407 428.035C-1.38851 428.016 -1.41496 428 -1.43434 427.987C-1.44905 427.978 -1.45748 427.972 -1.4607 427.97C-1.46181 427.969 -1.4623 427.969 -1.46222 427.969C-1.92115 427.62 -2.45122 427.512 -2.82479 427.473C-3.22943 427.43 -3.65768 427.447 -4.06651 427.491C-4.88772 427.58 -5.81792 427.798 -6.69919 428.066C-7.58669 428.337 -8.47818 428.674 -9.22872 429.026C-9.90617 429.343 -10.6936 429.773 -11.1615 430.293C-12.1724 431.417 -13.0743 433.295 -13.6462 435.078C-13.9397 435.992 -14.1664 436.943 -14.2766 437.835C-14.3835 438.702 -14.3962 439.633 -14.1656 440.446C-13.6235 442.358 -12.4533 443.51 -11.3914 444.408C-11.1544 444.608 -10.9303 444.792 -10.7182 444.966L-10.7179 444.966C-9.9286 445.612 -9.30493 446.123 -8.79489 446.871C-8.05617 447.954 -6.84348 448.883 -5.66737 449.55C-4.48723 450.22 -3.12651 450.749 -1.96164 450.877C-0.211389 451.07 1.65079 450.348 3.14872 449.455C4.68156 448.542 6.10611 447.287 7.00316 446.047C7.10496 445.906 7.212 445.75 7.31041 445.607L7.35309 445.545C7.46835 445.377 7.57759 445.219 7.68789 445.069C7.9249 444.748 8.09333 444.569 8.19788 444.49C8.50044 444.262 8.81348 443.964 9.01429 443.557C9.17773 443.225 9.2209 442.917 9.22051 442.671C9.77129 441.931 9.95625 441.195 10.0262 440.529C10.0516 440.288 10.0641 440.019 10.074 439.805L10.074 439.805L10.074 439.805C10.0773 439.735 10.0803 439.67 10.0834 439.615C10.0978 439.355 10.1184 439.146 10.1619 438.944C10.5982 436.916 9.78746 435.034 8.75694 433.611C7.71411 432.172 6.29623 430.984 5.0574 430.234C4.6578 429.992 4.19022 429.958 3.78143 430.102ZM6.44403 442.052C6.44409 442.052 6.44283 442.053 6.44004 442.056C6.44257 442.053 6.44396 442.052 6.44403 442.052ZM1.4095 436.736C1.54413 436.895 1.69812 437.079 1.85205 437.279C2.00463 437.451 2.14863 437.65 2.26538 437.877C2.28861 437.915 2.31131 437.954 2.3334 437.992C2.60478 438.469 2.89593 439.176 2.76206 440C2.62073 440.87 2.06811 441.518 1.38745 441.982C0.796116 442.385 0.142619 442.562 -0.516105 442.52C-1.14695 442.479 -1.6869 442.242 -2.10811 441.978C-2.92405 441.465 -3.53475 440.694 -3.8831 440.183C-4.24736 439.649 -4.53819 439.053 -4.60338 438.42C-4.67602 437.714 -4.45524 437.026 -3.92541 436.522C-3.45566 436.075 -2.87582 435.899 -2.42167 435.831C-2.18966 435.796 -1.95402 435.783 -1.72115 435.788C-1.62765 435.668 -1.51411 435.56 -1.38149 435.469C-0.697033 435.003 0.236164 435.179 0.70286 435.864C0.842702 436.069 1.02562 436.284 1.27632 436.579L1.4095 436.736ZM-0.625936 439.359C-0.615039 439.283 -0.598219 439.207 -0.575323 439.133C-0.645234 439.09 -0.732364 439.045 -0.837221 439C-0.917511 438.966 -1.00172 438.936 -1.0878 438.909C-0.93769 439.085 -0.779392 439.242 -0.625936 439.359ZM-2.02918 438.809C-2.02931 438.809 -2.02652 438.808 -2.02038 438.806C-2.02597 438.808 -2.02904 438.809 -2.02918 438.809Z" fill="#777777"/>
<circle cx="17" cy="460" r="2" transform="rotate(90 17 460)" fill="#C4C4C4"/>
<circle cx="10" cy="464" r="2" transform="rotate(90 10 464)" fill="#C4C4C4"/>
<circle cx="26.2833" cy="437.717" r="2" transform="rotate(118.843 26.2833 437.717)" fill="#C4C4C4"/>
<circle cx="25.2833" cy="446.717" r="2" transform="rotate(118.843 25.2833 446.717)" fill="#C4C4C4"/>
<circle cx="21.2833" cy="453.717" r="2" transform="rotate(118.843 21.2833 453.717)" fill="#C4C4C4"/>
<circle cx="24" cy="428" r="2" transform="rotate(90 24 428)" fill="#C4C4C4"/>
<circle cx="19" cy="421" r="2" transform="rotate(90 19 421)" fill="#C4C4C4"/>
<circle cx="11" cy="416" r="2" transform="rotate(90 11 416)" fill="#C4C4C4"/>
</g>
</g>
<g clip-path="url(#clip1)">
<path d="M1084.14 196.855L1066.73 181.193L1062.9 163.167L1066.63 162.375L1065.83 158.649L1043.48 163.401L1044.27 167.127L1047.99 166.335L1051.83 184.361L1042.29 205.75C1041.72 207.04 1041.51 208.463 1041.69 209.863C1041.88 211.263 1042.44 212.585 1043.33 213.683C1044.22 214.781 1045.39 215.611 1046.73 216.082C1048.06 216.554 1049.49 216.648 1050.87 216.354L1080.61 210.033C1081.99 209.739 1083.27 209.07 1084.29 208.098C1085.31 207.126 1086.05 205.889 1086.41 204.525C1086.78 203.161 1086.76 201.723 1086.36 200.369C1085.96 199.015 1085.19 197.799 1084.14 196.855L1084.14 196.855ZM1055.81 184.78L1051.72 165.543L1059.17 163.959L1063.26 183.196L1069.7 188.985L1052.28 192.686L1055.81 184.78ZM1079.82 206.306L1050.08 212.627C1049.39 212.774 1048.67 212.726 1048 212.489C1047.33 212.252 1046.74 211.835 1046.3 211.284C1045.85 210.732 1045.57 210.069 1045.47 209.366C1045.38 208.663 1045.48 207.948 1045.77 207.3L1050.37 196.988L1073.2 192.135L1081.59 199.686C1082.12 200.161 1082.51 200.772 1082.71 201.452C1082.91 202.132 1082.92 202.854 1082.73 203.539C1082.55 204.224 1082.18 204.844 1081.67 205.333C1081.15 205.821 1080.51 206.158 1079.82 206.306Z" fill="#30419A"/>
<circle cx="1048.52" cy="155.515" r="3" transform="rotate(-12 1048.52 155.515)" stroke="#30419A" stroke-width="2"/>
<circle cx="1055.3" cy="148.959" r="2" transform="rotate(-12 1055.3 148.959)" stroke="#30419A" stroke-width="2"/>
<circle cx="1047.38" cy="142.976" r="1" transform="rotate(-12 1047.38 142.976)" stroke="#30419A"/>
</g>
<path d="M86.5356 197.48L82.4038 201.612C82.2064 201.809 82.0499 202.043 81.9431 202.301C81.8362 202.559 81.7812 202.835 81.7812 203.115C81.7812 203.394 81.8362 203.67 81.9431 203.928C82.0499 204.186 82.2064 204.42 82.4038 204.617L88.4149 210.627C88.8134 211.025 89.3537 211.249 89.9171 211.249C90.4804 211.249 91.0207 211.025 91.4192 210.627L95.5523 206.495C95.6017 206.446 95.6409 206.387 95.6676 206.323C95.6944 206.258 95.7081 206.189 95.7081 206.119C95.7081 206.05 95.6944 205.981 95.6676 205.916C95.6409 205.852 95.6017 205.793 95.5523 205.744L87.2874 197.48C87.238 197.431 87.1794 197.391 87.1149 197.365C87.0504 197.338 86.9813 197.324 86.9115 197.324C86.8417 197.324 86.7726 197.338 86.7081 197.365C86.6436 197.391 86.585 197.431 86.5356 197.48V197.48Z" fill="#0094F5" fill-opacity="0.53"/>
<path d="M68.5076 179.449L64.3758 183.582C63.9776 183.98 63.7539 184.521 63.7539 185.084C63.7539 185.647 63.9776 186.188 64.3758 186.586L70.3856 192.597C70.5829 192.795 70.8172 192.951 71.075 193.058C71.3329 193.165 71.6092 193.22 71.8883 193.22C72.1674 193.22 72.4438 193.165 72.7017 193.058C72.9595 192.951 73.1938 192.795 73.3911 192.597L77.5229 188.465C77.5723 188.416 77.6115 188.358 77.6382 188.293C77.665 188.229 77.6787 188.159 77.6787 188.09C77.6787 188.02 77.665 187.951 77.6382 187.886C77.6115 187.822 77.5723 187.763 77.5229 187.714L69.2593 179.449C69.21 179.399 69.1514 179.36 69.0869 179.333C69.0224 179.307 68.9533 179.293 68.8835 179.293C68.8137 179.293 68.7445 179.307 68.68 179.333C68.6155 179.36 68.5569 179.399 68.5076 179.449V179.449Z" fill="#0094F5" fill-opacity="0.53"/>
<path d="M107.957 167.059C106.182 165.281 104.073 163.871 101.752 162.908C99.4316 161.946 96.9439 161.45 94.4313 161.449C91.9188 161.448 89.4308 161.943 87.1093 162.904C84.7879 163.865 82.6787 165.274 80.9021 167.051L72.2613 175.69C72.2119 175.74 72.1727 175.798 72.146 175.863C72.1192 175.927 72.1055 175.997 72.1055 176.066C72.1055 176.136 72.1192 176.205 72.146 176.27C72.1727 176.334 72.2119 176.393 72.2613 176.442L80.5262 184.706C80.5755 184.755 80.6341 184.794 80.6986 184.821C80.7631 184.848 80.8322 184.862 80.9021 184.862C80.9719 184.862 81.041 184.848 81.1055 184.821C81.17 184.794 81.2286 184.755 81.2779 184.706L89.9107 176.066C90.5092 175.468 91.2209 174.995 92.0043 174.674C92.7876 174.354 93.627 174.192 94.4733 174.2C95.3197 174.207 96.1561 174.383 96.9338 174.717C97.7116 175.051 98.415 175.536 99.0031 176.145C101.434 178.658 101.323 182.684 98.8517 185.156L90.2932 193.717C90.2438 193.766 90.2047 193.825 90.1779 193.89C90.1512 193.954 90.1374 194.023 90.1374 194.093C90.1374 194.163 90.1512 194.232 90.1779 194.296C90.2047 194.361 90.2438 194.419 90.2932 194.469L98.5568 202.734C98.6062 202.783 98.6648 202.822 98.7293 202.849C98.7938 202.876 98.8629 202.89 98.9327 202.89C99.0025 202.89 99.0716 202.876 99.1361 202.849C99.2006 202.822 99.2592 202.783 99.3086 202.734L107.819 194.223C115.306 186.74 115.439 174.55 107.957 167.059V167.059Z" fill="#0094F5" fill-opacity="0.53"/>
</g>
<defs>
<clipPath id="clip0">
<rect width="61" height="33" fill="white" transform="translate(32 408) rotate(90)"/>
</clipPath>
<clipPath id="clip1">
<rect width="46" height="74" fill="white" transform="translate(1028 145.562) rotate(-12)"/>
</clipPath>
</defs>
</svg>
