<svg xmlns="http://www.w3.org/2000/svg" width="61" height="59" viewBox="0 0 61 59" fill="none">
<path fill-rule="evenodd" clip-rule="evenodd" d="M60.8203 29.0179C61.1125 38.6793 55.9212 47.6657 48.4858 53.3185C41.4682 58.6538 32.5234 58.8595 24.0609 56.9646C15.3927 55.0236 6.31015 51.4765 2.52486 43.0269C-1.23696 34.6297 1.85965 24.9662 6.07254 16.8107C9.98025 9.24598 16.152 3.24052 24.1014 1.25815C32.1285 -0.743599 40.3686 1.51826 47.0724 6.58639C54.2912 12.0438 60.5371 19.6559 60.8203 29.0179Z" fill="#C0D62C"/>
<path d="M42.1828 27.8373L32.5289 18.1904C32.4594 18.1208 32.3768 18.0655 32.2859 18.0278C32.1951 17.9901 32.0976 17.9707 31.9992 17.9707C31.9008 17.9707 31.8034 17.9901 31.7125 18.0278C31.6216 18.0655 31.539 18.1208 31.4695 18.1904L21.8156 27.8373C21.5344 28.1185 21.375 28.5006 21.375 28.899C21.375 29.7263 22.0477 30.399 22.875 30.399H23.8922V37.2826C23.8922 37.6974 24.2273 38.0326 24.6422 38.0326H30.4992V32.7826H33.1242V38.0326H39.3563C39.7711 38.0326 40.1063 37.6974 40.1063 37.2826V30.399H41.1234C41.5219 30.399 41.9039 30.242 42.1852 29.9584C42.7687 29.3724 42.7687 28.4232 42.1828 27.8373Z" fill="white"/>
</svg>