<svg width="1440" height="931" viewBox="0 0 1440 931" fill="none" xmlns="http://www.w3.org/2000/svg">
<mask id="mask0" mask-type="alpha" maskUnits="userSpaceOnUse" x="0" y="0" width="1440" height="931">
<rect width="1440" height="931" fill="#C4C4C4"/>
</mask>
<g mask="url(#mask0)">
<path fill-rule="evenodd" clip-rule="evenodd" d="M1661.14 672.751L1589.17 722.299C1517.2 771.846 1373.26 870.941 1228.19 905.679C1083.12 940.418 937.482 942.977 790.714 881.18C643.946 819.383 498.242 761.643 351.142 737.456C210.452 710.8 34.3734 753.494 -37.5967 803.042L-84.115 839.226L-89.0462 558.665L-16.2276 557.385C56.5909 556.105 202.228 553.545 347.865 550.986C493.502 548.426 639.139 545.866 784.775 543.306C930.412 540.747 1076.05 538.187 1221.69 535.627C1367.32 533.068 1512.96 530.508 1585.78 529.228L1658.6 527.948L1661.14 672.751Z" fill="#FEE678"/>
<path fill-rule="evenodd" clip-rule="evenodd" d="M1264.68 586.998L1209.22 619.278C1153.76 651.558 1042.84 716.119 930.367 740.552C817.897 764.986 703.879 749.293 589.086 713.536C474.294 677.78 358.727 621.96 245.483 626.33C132.239 630.7 21.3175 695.26 -34.1432 727.54L-89.6037 759.821L-97.7335 549.156L-41.1115 546.971C15.5105 544.785 128.755 540.415 241.999 536.045C355.243 531.675 468.487 527.305 581.731 522.935C694.975 518.564 808.219 514.194 921.463 509.824C1034.71 505.454 1147.95 501.084 1204.57 498.898L1261.19 496.713L1264.68 586.998Z" fill="#FFD102"/>
<path d="M3.05176e-05 -16.2762H1440V552.545H3.05176e-05V-16.2762Z" fill="#00A2B1"/>
<path fill-rule="evenodd" clip-rule="evenodd" d="M1700 727.803L1620.08 746.115C1540.17 763.206 1380.33 798.61 1220.5 825.468C1060.67 851.105 900.833 869.417 741 825.468C581.167 781.518 421.333 675.308 261.5 631.359C101.667 587.409 -58.1667 605.721 -138.083 614.267L-218 622.813V359.117H-138.083C-58.1667 359.117 101.667 359.117 261.5 359.117C421.333 359.117 581.167 359.117 741 359.117C900.833 359.117 1060.67 359.117 1220.5 359.117C1380.33 359.117 1540.17 359.117 1620.08 359.117H1700V727.803Z" fill="#00A2B1"/>
<path fill-rule="evenodd" clip-rule="evenodd" d="M1440 -212.988L1380 -224.181C1320 -234.629 1200 -256.27 1080 -224.181C960 -192.093 840 -105.528 720 -111.498C600 -116.721 480 -212.988 360 -261.494C240 -310 120 -310 60 -310H3.05176e-05V12.3798H60C120 12.3798 240 12.3798 360 12.3798C480 12.3798 600 12.3798 720 12.3798C840 12.3798 960 12.3798 1080 12.3798C1200 12.3798 1320 12.3798 1380 12.3798H1440V-212.988Z" fill="#00A2B1"/>
<path d="M724.418 682.615C724.975 681.849 725.503 681.089 725.994 680.281C726.989 678.641 728.087 677.053 729.16 675.444C730.069 674.08 731.325 672.824 732.369 671.571C734.191 669.384 736.082 667.343 737.68 664.991C738.611 663.619 739.452 662.202 740.364 660.818C741.308 659.387 741.771 657.7 742.67 656.252C743.167 655.45 741.379 654.094 740.897 653.538C740.333 652.887 739.519 652.527 738.862 651.991C737.866 651.18 736.767 650.374 735.681 649.686C732.896 647.924 730.267 645.935 727.752 643.807C726.347 642.618 725.156 641.128 723.689 640.028C723.453 639.852 723.114 640.56 722.974 640.721C722.068 641.756 721.217 642.784 720.216 643.748C718.053 645.833 715.806 647.933 713.505 649.861C711.798 651.292 710.015 652.621 708.413 654.173C707.041 655.502 705.744 656.907 704.394 658.258C703.49 659.162 702.719 660.169 701.833 661.081C701.55 661.372 701.285 661.672 701.016 661.971C700.947 662.047 701.115 661.964 701.177 662.073C701.419 662.496 701.885 662.84 702.227 663.182C702.559 663.513 702.734 663.915 703.044 664.261C703.603 664.885 703.921 665.796 704.328 666.523C704.768 667.308 705.362 668.113 705.904 668.835C707.478 670.934 708.799 673.241 710.339 675.364C711.214 676.569 712.207 677.657 713.155 678.807C713.217 678.882 713.665 679.58 713.848 679.58C714.132 679.58 714.536 678.598 714.767 678.413C715.286 677.998 715.534 677.287 715.949 676.779C716.491 676.117 716.99 675.427 717.59 674.81C718.417 673.959 719.188 672.822 720.114 672.11C720.988 671.438 721.7 670.446 722.441 669.63C723.388 668.589 724.481 667.67 725.396 666.61C726.387 665.462 727.242 664.3 728.036 662.948C728.297 662.504 728.544 662.073 728.831 661.657C729.326 660.943 729.584 659.784 730.261 659.242C730.3 659.212 726.352 655.689 725.862 655.405C725.226 655.037 724.646 654.378 724.039 653.939C723.829 653.787 723.381 653.261 723.105 653.261C722.869 653.261 722.482 653.952 722.383 654.129C722.073 654.679 721.501 655.268 721.077 655.748C720.047 656.916 718.94 657.893 717.845 658.987C716.447 660.386 714.643 661.293 713.228 662.686C713.115 662.796 712.161 663.514 712.236 663.678C712.263 663.738 712.588 663.719 712.666 663.78C713.067 664.092 713.39 664.507 713.782 664.816C714.469 665.356 715.137 665.85 715.752 666.464" stroke="#00C4D6" stroke-width="3" stroke-linecap="round" stroke-linejoin="round"/>
<path d="M759.928 114.659C759.444 114.698 760.083 116.552 757.899 116.695C757.641 116.487 755.85 115 755.561 114.946C754.486 113.295 754.301 111.748 755.116 110.93C755.825 110.219 757.5 109.228 758.633 109.317C759.622 109.394 762.28 110.167 763.037 110.922C764.036 111.917 766.015 113.421 765.801 114.831C765.616 116.047 765.809 117.445 764.896 118.361C762.188 121.079 758.284 122.221 755.186 121.527C752.255 120.87 748.476 115.472 747.654 112.722C746.658 109.39 747.91 107.328 748.808 104.452C750.014 103.242 750.489 102.764 751.89 102.014C754.137 101.355 753.684 101.076 754.936 100.898C759.441 100.259 763 99.8701 767.511 101.892C771.31 103.596 771.862 105.113 774.074 108.345C775.477 110.395 774.535 113.098 774.938 116.123C774.103 118.283 774.506 118.283 773.642 120.011C772.796 120.86 771.919 122.891 771.049 123.645C769.334 125.131 767.825 127.605 765.651 128.446C762.399 129.705 759.138 129.753 755.596 129.411C753.558 129.214 750.954 128.632 748.986 127.749C746.825 126.781 745.438 125.37 743.705 123.645C740.001 119.954 737.028 114.215 736.624 109.268C736.124 103.146 739.687 95.6265 744.694 92.8788C747.189 91.5096 749.206 90.1687 752.039 89.3349C754.753 88.5362 758.445 88.8384 761.915 89.6816C762.554 89.9895 763.135 89.9 763.778 90.0815C764.569 90.3049 765.646 90.8173 766.463 91.0309C767.993 91.4308 768.75 92.1494 770.064 92.8788C771.792 93.3881 774.029 95.6699 775.344 96.9803C778.138 99.7639 780.936 103.13 782.166 106.675" stroke="#00C4D6" stroke-width="2" stroke-linecap="round" stroke-linejoin="round"/>
<path d="M1354.42 692.615C1354.98 691.849 1355.5 691.089 1355.99 690.281C1356.99 688.641 1358.09 687.053 1359.16 685.444C1360.07 684.08 1361.33 682.824 1362.37 681.571C1364.19 679.384 1366.08 677.343 1367.68 674.991C1368.61 673.619 1369.45 672.202 1370.36 670.818C1371.31 669.387 1371.77 667.7 1372.67 666.252C1373.17 665.45 1371.38 664.094 1370.9 663.538C1370.33 662.887 1369.52 662.527 1368.86 661.991C1367.87 661.18 1366.77 660.374 1365.68 659.686C1362.9 657.924 1360.27 655.935 1357.75 653.807C1356.35 652.618 1355.16 651.128 1353.69 650.028C1353.45 649.852 1353.11 650.56 1352.97 650.721C1352.07 651.756 1351.22 652.784 1350.22 653.748C1348.05 655.833 1345.81 657.933 1343.51 659.861C1341.8 661.292 1340.02 662.621 1338.41 664.173C1337.04 665.502 1335.74 666.907 1334.39 668.258C1333.49 669.162 1332.72 670.169 1331.83 671.081C1331.55 671.372 1331.29 671.672 1331.02 671.971C1330.95 672.047 1331.11 671.964 1331.18 672.073C1331.42 672.496 1331.89 672.84 1332.23 673.182C1332.56 673.513 1332.73 673.915 1333.04 674.261C1333.6 674.885 1333.92 675.796 1334.33 676.523C1334.77 677.308 1335.36 678.113 1335.9 678.835C1337.48 680.934 1338.8 683.241 1340.34 685.364C1341.21 686.569 1342.21 687.657 1343.15 688.807C1343.22 688.882 1343.67 689.58 1343.85 689.58C1344.13 689.58 1344.54 688.598 1344.77 688.413C1345.29 687.998 1345.53 687.287 1345.95 686.779C1346.49 686.117 1346.99 685.427 1347.59 684.81C1348.42 683.959 1349.19 682.822 1350.11 682.11C1350.99 681.438 1351.7 680.446 1352.44 679.63C1353.39 678.589 1354.48 677.67 1355.4 676.61C1356.39 675.462 1357.24 674.3 1358.04 672.948C1358.3 672.504 1358.54 672.073 1358.83 671.657C1359.33 670.943 1359.58 669.784 1360.26 669.242C1360.3 669.212 1356.35 665.689 1355.86 665.405C1355.23 665.037 1354.65 664.378 1354.04 663.939C1353.83 663.787 1353.38 663.261 1353.1 663.261C1352.87 663.261 1352.48 663.952 1352.38 664.129C1352.07 664.679 1351.5 665.268 1351.08 665.748C1350.05 666.916 1348.94 667.893 1347.85 668.987C1346.45 670.386 1344.64 671.293 1343.23 672.686C1343.12 672.796 1342.16 673.514 1342.24 673.678C1342.26 673.738 1342.59 673.719 1342.67 673.78C1343.07 674.092 1343.39 674.507 1343.78 674.816C1344.47 675.356 1345.14 675.85 1345.75 676.464" stroke="#00C4D6" stroke-width="3" stroke-linecap="round" stroke-linejoin="round"/>
<path fill-rule="evenodd" clip-rule="evenodd" d="M1049.5 754.791C1048.44 746.657 1020.93 732.722 1016.56 740.798C1012.19 748.874 1017.91 763.068 1028.45 766.074C1038.98 769.08 1050.56 762.925 1049.5 754.791Z" fill="#FFE142"/>
<path fill-rule="evenodd" clip-rule="evenodd" d="M106.753 515.506C112.107 520.37 140.033 512.769 138.672 504.58C137.31 496.39 125.14 490.306 115.758 494.798C106.377 499.29 101.399 510.642 106.753 515.506Z" fill="#EFACC4"/>
<path fill-rule="evenodd" clip-rule="evenodd" d="M388.01 167.637C388.437 161.542 411.343 149.778 415.595 155.551C419.848 161.324 418.771 173.467 409.86 176.241C400.948 179.016 387.583 173.732 388.01 167.637Z" fill="#C0D62C"/>
<path fill-rule="evenodd" clip-rule="evenodd" d="M1302.31 211.08C1297.45 207.38 1298.24 185.18 1304.98 185.508C1311.72 185.836 1321.29 193.36 1319.5 200.989C1317.7 208.619 1307.17 214.779 1302.31 211.08Z" fill="#FF8F31"/>
<g clip-path="url(#clip0)">
<mask id="mask1" mask-type="alpha" maskUnits="userSpaceOnUse" x="0" y="408" width="32" height="61">
<rect x="32" y="408" width="61" height="32" transform="rotate(90 32 408)" fill="#C4C4C4"/>
</mask>
<g mask="url(#mask1)">
<path fill-rule="evenodd" clip-rule="evenodd" d="M2.7388 459.851C5.66782 458.64 8.89918 455.968 10.6963 453.123C11.1768 452.363 11.7756 451.563 12.337 450.814L12.337 450.814L12.3371 450.814C12.5861 450.481 12.8278 450.158 13.0487 449.853C13.8194 448.788 14.4259 447.825 14.7472 446.888C15.8899 443.555 16.4128 441.099 16.6329 437.784C16.7144 436.557 16.2598 435.31 15.495 433.923C15.1652 433.325 14.8031 432.743 14.4265 432.138L14.4265 432.138L14.2531 431.86C13.8276 431.175 13.3838 430.447 13.0319 429.721C10.5493 424.601 5.02121 421.407 -0.997382 420.931C-1.30223 420.907 -1.57855 420.793 -1.8026 420.618C-1.96326 420.66 -2.12185 420.696 -2.27405 420.726C-2.80586 420.833 -3.38085 420.899 -3.92959 420.941C-5.02794 421.025 -6.12596 421.019 -6.76788 421.004C-6.87067 421.002 -7.15393 421.041 -7.63428 421.206C-8.08342 421.361 -8.6013 421.589 -9.12935 421.861C-10.2232 422.426 -11.1631 423.079 -11.5559 423.481C-14.699 426.694 -17.3463 431.468 -17.8571 435.681C-18.9749 444.899 -14.9223 453.679 -7.41281 457.982C-6.18758 458.684 -4.35076 459.483 -2.42438 459.928C-0.465999 460.38 1.36988 460.417 2.7388 459.851ZM-0.240181 417.988C-0.686414 417.388 -1.52034 417.202 -2.186 417.582C-2.25826 417.623 -2.46617 417.705 -2.86215 417.785C-3.23388 417.859 -3.67916 417.913 -4.15809 417.95C-5.11507 418.023 -6.10195 418.019 -6.69977 418.005C-7.33625 417.991 -8.02012 418.166 -8.60948 418.369C-9.23003 418.582 -9.88441 418.875 -10.5059 419.196C-11.711 419.818 -12.9791 420.645 -13.7007 421.383C-17.1871 424.948 -20.2269 430.303 -20.8353 435.319C-22.0813 445.595 -17.5773 455.616 -8.90423 460.585C-7.45568 461.415 -5.34565 462.332 -3.09944 462.851C-0.885217 463.362 1.67726 463.536 3.88515 462.623C7.38341 461.177 11.102 458.098 13.2325 454.726C13.6496 454.066 14.1243 453.432 14.6442 452.739L14.6442 452.739C14.9112 452.383 15.1901 452.011 15.4793 451.611C16.2794 450.505 17.1112 449.242 17.585 447.861C18.8039 444.306 19.3869 441.589 19.6263 437.983C19.7655 435.886 18.9731 434.018 18.1222 432.475C17.7508 431.801 17.3423 431.145 16.9687 430.545L16.8015 430.277C16.3723 429.586 16.0065 428.98 15.7314 428.413C12.7657 422.296 6.41336 418.669 -0.240181 417.988ZM1.61288 446.878C2.85826 446.136 3.95482 445.142 4.57276 444.288C4.65047 444.181 4.73361 444.06 4.83484 443.912L4.83493 443.912L4.87974 443.847C4.99614 443.677 5.13061 443.482 5.27408 443.288C5.50391 442.977 5.81231 442.588 6.18678 442.261C6.18736 442.247 6.18809 442.233 6.18899 442.219C6.20219 442.009 6.25024 441.784 6.35076 441.557C6.44867 441.336 6.57966 441.149 6.71997 440.993C6.9455 440.743 7.008 440.546 7.04269 440.216C7.0584 440.066 7.06447 439.934 7.07255 439.759C7.07666 439.669 7.0813 439.568 7.08801 439.448C7.10573 439.13 7.13695 438.74 7.22907 438.312C7.41208 437.462 7.11143 436.453 6.3276 435.371C5.7332 434.551 4.94418 433.811 4.17719 433.251C3.93961 433.296 3.68775 433.284 3.44136 433.204C2.74977 432.982 2.2041 432.666 1.80403 432.434L1.80361 432.434L1.80331 432.434C1.7576 432.407 1.71379 432.382 1.67188 432.358C1.25224 432.117 0.945004 431.961 0.53143 431.868C0.0653998 431.764 -0.648662 431.551 -1.32415 431.306C-1.88983 431.101 -2.62243 430.806 -3.13893 430.456L-3.13979 430.456C-3.25873 430.444 -3.45786 430.443 -3.74485 430.474C-4.31526 430.536 -5.05046 430.7 -5.82556 430.936C-6.59443 431.17 -7.35029 431.459 -7.95531 431.742C-8.25807 431.884 -8.50525 432.017 -8.68946 432.131C-8.84302 432.227 -8.91216 432.285 -8.92939 432.299C-8.93493 432.304 -8.9351 432.304 -8.93098 432.3C-9.53518 432.971 -10.2754 434.392 -10.7897 435.994C-11.0394 436.772 -11.2169 437.536 -11.2992 438.203C-11.3846 438.895 -11.3527 439.369 -11.2794 439.627C-10.9831 440.672 -10.3674 441.345 -9.45408 442.117C-9.30205 442.246 -9.13493 442.382 -8.95756 442.526C-8.13645 443.192 -7.0957 444.037 -6.31624 445.181C-5.94017 445.732 -5.16536 446.386 -4.18693 446.941C-3.21254 447.494 -2.2517 447.827 -1.63366 447.895C-0.840515 447.982 0.332615 447.641 1.61288 446.878ZM-3.0694 430.468C-3.06958 430.468 -3.07378 430.467 -3.08143 430.465C-3.07304 430.466 -3.06921 430.467 -3.0694 430.468ZM3.78143 430.102C3.63288 430.025 3.47644 429.935 3.29169 429.828L3.16436 429.755C2.67802 429.476 2.0538 429.135 1.1884 428.941C0.876743 428.871 0.287848 428.7 -0.301261 428.486C-0.591652 428.381 -0.861736 428.272 -1.08368 428.17C-1.19416 428.119 -1.28426 428.074 -1.35407 428.035C-1.38851 428.016 -1.41496 428 -1.43434 427.987C-1.44905 427.978 -1.45748 427.972 -1.4607 427.97C-1.46181 427.969 -1.4623 427.969 -1.46222 427.969C-1.92115 427.62 -2.45122 427.512 -2.82479 427.473C-3.22943 427.43 -3.65768 427.447 -4.06651 427.491C-4.88772 427.58 -5.81792 427.798 -6.69919 428.066C-7.58669 428.337 -8.47818 428.674 -9.22872 429.026C-9.90617 429.343 -10.6936 429.773 -11.1615 430.293C-12.1724 431.417 -13.0743 433.295 -13.6462 435.078C-13.9397 435.992 -14.1664 436.943 -14.2766 437.835C-14.3835 438.702 -14.3962 439.633 -14.1656 440.446C-13.6235 442.358 -12.4533 443.51 -11.3914 444.408C-11.1544 444.608 -10.9303 444.792 -10.7182 444.966L-10.7179 444.966C-9.9286 445.612 -9.30493 446.123 -8.79489 446.871C-8.05617 447.954 -6.84348 448.883 -5.66737 449.55C-4.48723 450.22 -3.12651 450.749 -1.96164 450.877C-0.211389 451.07 1.65079 450.348 3.14872 449.455C4.68156 448.542 6.10611 447.287 7.00316 446.047C7.10496 445.906 7.212 445.75 7.31041 445.607L7.35309 445.545C7.46835 445.377 7.57759 445.219 7.68789 445.069C7.9249 444.748 8.09333 444.569 8.19788 444.49C8.50044 444.262 8.81348 443.964 9.01429 443.557C9.17773 443.225 9.2209 442.917 9.22051 442.671C9.77129 441.931 9.95625 441.195 10.0262 440.529C10.0516 440.288 10.0641 440.019 10.074 439.805L10.074 439.805L10.074 439.805C10.0773 439.735 10.0803 439.67 10.0834 439.615C10.0978 439.355 10.1184 439.146 10.1619 438.944C10.5982 436.916 9.78746 435.034 8.75694 433.611C7.71411 432.172 6.29623 430.984 5.0574 430.234C4.6578 429.992 4.19022 429.958 3.78143 430.102ZM6.44403 442.052C6.44409 442.052 6.44283 442.053 6.44004 442.056C6.44256 442.053 6.44396 442.052 6.44403 442.052ZM1.4095 436.736C1.54413 436.895 1.69812 437.079 1.85205 437.279C2.00463 437.451 2.14863 437.65 2.26538 437.877C2.28861 437.915 2.31131 437.954 2.3334 437.992C2.60478 438.469 2.89593 439.176 2.76206 440C2.62073 440.87 2.06811 441.518 1.38745 441.982C0.796116 442.385 0.142618 442.562 -0.516105 442.52C-1.14695 442.479 -1.6869 442.242 -2.10811 441.978C-2.92405 441.465 -3.53475 440.694 -3.8831 440.183C-4.24736 439.649 -4.53819 439.053 -4.60338 438.42C-4.67602 437.714 -4.45524 437.026 -3.92541 436.522C-3.45566 436.075 -2.87582 435.899 -2.42167 435.831C-2.18966 435.796 -1.95402 435.783 -1.72115 435.788C-1.62765 435.668 -1.51411 435.56 -1.38149 435.469C-0.697033 435.003 0.236164 435.179 0.70286 435.864C0.842702 436.069 1.02562 436.284 1.27632 436.579L1.4095 436.736ZM-0.625936 439.359C-0.615039 439.283 -0.598219 439.207 -0.575324 439.133C-0.645234 439.09 -0.732364 439.045 -0.837221 439C-0.917511 438.966 -1.00172 438.936 -1.0878 438.909C-0.93769 439.085 -0.779392 439.242 -0.625936 439.359ZM-2.02918 438.809C-2.02931 438.809 -2.02652 438.808 -2.02038 438.806C-2.02597 438.808 -2.02904 438.809 -2.02918 438.809Z" fill="#00C4D6"/>
<circle cx="17" cy="460" r="2" transform="rotate(90 17 460)" fill="#00C4D6"/>
<circle cx="10" cy="464" r="2" transform="rotate(90 10 464)" fill="#00C4D6"/>
<circle cx="26.2833" cy="437.717" r="2" transform="rotate(118.843 26.2833 437.717)" fill="#00C4D6"/>
<circle cx="25.2833" cy="446.717" r="2" transform="rotate(118.843 25.2833 446.717)" fill="#00C4D6"/>
<circle cx="21.2833" cy="453.717" r="2" transform="rotate(118.843 21.2833 453.717)" fill="#00C4D6"/>
<circle cx="24" cy="428" r="2" transform="rotate(90 24 428)" fill="#00C4D6"/>
<circle cx="19" cy="421" r="2" transform="rotate(90 19 421)" fill="#00C4D6"/>
<circle cx="11" cy="416" r="2" transform="rotate(90 11 416)" fill="#00C4D6"/>
</g>
</g>
<g clip-path="url(#clip1)">
<path d="M1084.14 196.855L1066.73 181.193L1062.9 163.167L1066.63 162.375L1065.83 158.649L1043.48 163.401L1044.27 167.127L1047.99 166.335L1051.83 184.361L1042.29 205.75C1041.72 207.04 1041.51 208.463 1041.69 209.863C1041.88 211.263 1042.44 212.585 1043.33 213.683C1044.22 214.781 1045.39 215.611 1046.73 216.082C1048.06 216.554 1049.49 216.648 1050.87 216.354L1080.61 210.033C1081.99 209.739 1083.27 209.07 1084.29 208.098C1085.31 207.126 1086.05 205.889 1086.41 204.525C1086.78 203.161 1086.76 201.723 1086.36 200.369C1085.96 199.015 1085.19 197.799 1084.14 196.855L1084.14 196.855ZM1055.81 184.78L1051.72 165.543L1059.17 163.959L1063.26 183.196L1069.7 188.985L1052.28 192.686L1055.81 184.78ZM1079.82 206.306L1050.08 212.627C1049.39 212.774 1048.67 212.726 1048 212.489C1047.33 212.252 1046.74 211.835 1046.3 211.284C1045.85 210.732 1045.57 210.069 1045.47 209.366C1045.38 208.663 1045.48 207.948 1045.77 207.3L1050.37 196.988L1073.2 192.135L1081.59 199.686C1082.12 200.161 1082.51 200.772 1082.71 201.452C1082.91 202.132 1082.92 202.854 1082.73 203.539C1082.55 204.224 1082.18 204.844 1081.67 205.333C1081.15 205.821 1080.51 206.158 1079.82 206.306Z" fill="#00C4D6"/>
<circle cx="1048.52" cy="155.515" r="3" transform="rotate(-12 1048.52 155.515)" stroke="#00C4D6" stroke-width="2"/>
<circle cx="1055.3" cy="148.959" r="2" transform="rotate(-12 1055.3 148.959)" stroke="#00C4D6" stroke-width="2"/>
<circle cx="1047.38" cy="142.976" r="1" transform="rotate(-12 1047.38 142.976)" stroke="#00C4D6"/>
</g>
</g>
<defs>
<clipPath id="clip0">
<rect width="61" height="33" fill="white" transform="translate(32 408) rotate(90)"/>
</clipPath>
<clipPath id="clip1">
<rect width="46" height="74" fill="white" transform="translate(1028 145.562) rotate(-12)"/>
</clipPath>
</defs>
</svg>
