<svg width="30" height="30" viewBox="0 0 30 30" fill="none" xmlns="http://www.w3.org/2000/svg">
<g id="iconmonstr-linkedin-4">
<path id="Shape" fill-rule="evenodd" clip-rule="evenodd" d="M0 15C0 6.71625 6.71625 0 15 0C23.2837 0 30 6.71625 30 15C30 23.2837 23.2837 30 15 30C6.71625 30 0 23.2837 0 15ZM12.5 20V12.5H10V20H12.5ZM11.25 11.3863C10.4913 11.3863 9.875 10.7663 9.875 10C9.875 9.235 10.49 8.61375 11.25 8.61375C12.01 8.61375 12.625 9.235 12.625 10C12.625 10.7663 12.0087 11.3863 11.25 11.3863ZM18.7525 20H21.25V15.8013C21.25 11.6962 17.34 11.8463 16.25 13.8663V12.5H13.75V20H16.25V16.4237C16.25 14.2713 18.7525 14.0725 18.7525 16.4237V20Z" fill="white"/>
</g>
</svg>
