<svg xmlns="http://www.w3.org/2000/svg" width="80" height="79" viewBox="0 0 80 79" fill="none">
<path fill-rule="evenodd" clip-rule="evenodd" d="M13.0336 25.8283C17.1909 17.1022 25.9164 11.4835 35.1136 9.85548C43.7941 8.31896 51.8434 12.2255 58.5032 17.7798C65.325 23.4692 71.781 30.7764 71.2844 40.0217C70.7908 49.2098 63.6187 56.3884 56.1432 61.7155C49.2093 66.6567 40.9746 69.1761 32.9984 67.3047C24.9442 65.415 18.6498 59.636 15.0048 52.0636C11.0798 43.9095 9.00513 34.284 13.0336 25.8283Z" fill="url(#paint0_linear)"/>
<path d="M38.3357 40.2196C39.8598 41.7658 41.704 42.9595 43.7387 43.7169L46.4913 41.5265C46.5729 41.4703 46.6697 41.4402 46.7688 41.4402C46.8679 41.4402 46.9646 41.4703 47.0462 41.5265L52.1572 44.8195C52.3512 44.9361 52.5155 45.0963 52.637 45.2873C52.7585 45.4784 52.8339 45.695 52.8572 45.9202C52.8806 46.1454 52.8513 46.373 52.7716 46.5849C52.6919 46.7968 52.5641 46.9873 52.3981 47.1413L50.0033 49.5069C49.6603 49.8458 49.2388 50.0945 48.7763 50.2308C48.3139 50.3672 47.8248 50.3869 47.3529 50.2882C42.6451 49.3159 38.3058 47.0387 34.831 43.7169C31.4333 40.3621 29.0821 36.0935 28.0626 31.4287C27.9619 30.9641 27.9829 30.4813 28.1237 30.0272C28.2644 29.5731 28.52 29.163 28.8658 28.8367L31.3483 26.4419C31.5019 26.284 31.6892 26.1629 31.8963 26.0877C32.1033 26.0125 32.3247 25.9851 32.5438 26.0076C32.7629 26.0301 32.9741 26.1019 33.1616 26.2175C33.349 26.3332 33.5079 26.4898 33.6263 26.6755L37.0287 31.7208C37.0874 31.8 37.1191 31.896 37.1191 31.9946C37.1191 32.0932 37.0874 32.1892 37.0287 32.2684L34.7872 34.9626C35.5652 36.9565 36.7774 38.7523 38.3357 40.2196Z" fill="white"/>
<defs>
<linearGradient id="paint0_linear" x1="40" y1="39" x2="215.5" y2="51.5" gradientUnits="userSpaceOnUse">
<stop stop-color="#64C368"/>
<stop offset="1" stop-color="#64C368" stop-opacity="0"/>
</linearGradient>
</defs>
</svg>