<svg xmlns="http://www.w3.org/2000/svg" width="61" height="59" viewBox="0 0 61 59" fill="none">
<path fill-rule="evenodd" clip-rule="evenodd" d="M60.8203 29.0199C61.1125 38.6813 55.9212 47.6677 48.4858 53.3205C41.4682 58.6557 32.5234 58.8615 24.0609 56.9666C15.3927 55.0256 6.31015 51.4784 2.52486 43.0289C-1.23696 34.6317 1.85965 24.9682 6.07254 16.8126C9.98025 9.24793 16.152 3.24247 24.1014 1.2601C32.1285 -0.741645 40.3686 1.52022 47.0724 6.58834C54.2912 12.0458 60.5371 19.6579 60.8203 29.0199Z" fill="#C0D62C"/>
<path d="M29.4893 30.6774C30.7411 31.9473 32.2559 32.9278 33.9271 33.55L36.1879 31.7508C36.255 31.7047 36.3344 31.68 36.4158 31.68C36.4972 31.68 36.5767 31.7047 36.6437 31.7508L40.8416 34.4555C41.001 34.5513 41.1359 34.6829 41.2357 34.8398C41.3355 34.9967 41.3974 35.1747 41.4166 35.3596C41.4358 35.5446 41.4117 35.7315 41.3463 35.9055C41.2809 36.0796 41.1758 36.2361 41.0395 36.3626L39.0725 38.3056C38.7908 38.5839 38.4446 38.7882 38.0647 38.9002C37.6849 39.0121 37.2832 39.0283 36.8956 38.9473C33.0288 38.1487 29.4648 36.2783 26.6107 33.55C23.82 30.7945 21.8888 27.2884 21.0514 23.457C20.9687 23.0753 20.986 22.6788 21.1016 22.3058C21.2171 21.9328 21.4271 21.596 21.7111 21.328L23.7501 19.361C23.8763 19.2313 24.0302 19.1319 24.2002 19.0701C24.3703 19.0083 24.5521 18.9858 24.7321 19.0043C24.912 19.0228 25.0855 19.0817 25.2395 19.1767C25.3935 19.2717 25.524 19.4003 25.6212 19.5529L28.4158 23.6968C28.464 23.7619 28.49 23.8407 28.49 23.9217C28.49 24.0027 28.464 24.0815 28.4158 24.1466L26.5747 26.3595C27.2137 27.9973 28.2093 29.4722 29.4893 30.6774Z" fill="white"/>
</svg>