<svg width="391" height="300" viewBox="0 0 391 300" fill="none" xmlns="http://www.w3.org/2000/svg">
<g clip-path="url(#clip0)">
<path d="M371 160.333C371 241.593 298.349 300 198.96 300C90.106 287.263 24.706 231.045 19 173.07C23.8282 84.7902 86.1557 26.8161 179.208 3.97715C281.359 -21.095 357.803 77.324 371 160.333Z" fill="#EEFAEF"/>
<path d="M186.819 229.645C187.039 232.486 188.133 235.428 190.435 237.104C192.737 238.781 196.399 238.749 198.157 236.497C198.748 235.651 199.182 234.707 199.44 233.708C200.921 229.027 201.972 223.905 200.349 219.269C196.687 219.031 192.442 217.309 189.693 220.335C187.473 222.8 186.564 226.359 186.819 229.645Z" fill="#3F3D56"/>
<g filter="url(#filter0_d)">
<path d="M203.819 201.008C203.332 205.139 202.505 209.253 202.59 213.412C202.622 215.018 202.792 216.609 202.796 218.222C202.802 222.409 201.699 226.523 199.599 230.146C199.378 230.571 199.082 230.954 198.725 231.275C197.883 231.957 196.615 231.9 195.67 231.378C194.747 230.804 193.997 229.99 193.5 229.023C190.854 224.491 190.779 218.982 189.732 213.842C188.929 209.91 187.522 206.098 187.014 202.12C186.684 199.559 186.734 196.949 186.208 194.419C186.048 193.656 185.601 192.509 185.306 191.383C185.036 190.377 184.887 189.39 185.164 188.711C185.728 187.323 187.579 187.862 188.783 187.948C193.024 188.262 197.282 188.251 201.521 187.916C201.94 187.884 202.416 187.866 202.711 188.164C202.839 188.315 202.936 188.49 202.995 188.679C203.332 189.603 203.59 190.554 203.765 191.521C204.352 194.615 204.188 197.858 203.819 201.008Z" fill="#D8A575"/>
</g>
<g opacity="0.1">
<path opacity="0.1" d="M202.186 187.916C201.967 187.893 201.747 187.893 201.528 187.916C199.497 188.079 197.461 188.161 195.43 188.172C197.682 188.176 199.934 188.091 202.186 187.916Z" fill="black"/>
<path opacity="0.1" d="M196.389 231.378C195.466 230.803 194.715 229.989 194.218 229.023C191.572 224.49 191.498 218.981 190.45 213.841C189.647 209.909 188.24 206.098 187.732 202.12C187.402 199.559 187.452 196.948 186.926 194.419C186.766 193.655 186.319 192.508 186.024 191.382C185.754 190.377 185.605 189.389 185.882 188.711C185.999 188.433 186.198 188.196 186.451 188.032C186.704 187.867 187.001 187.782 187.303 187.787C186.404 187.727 185.527 187.834 185.171 188.711C184.894 189.389 185.044 190.377 185.314 191.382C185.608 192.508 186.056 193.655 186.216 194.419C186.741 196.948 186.692 199.559 187.022 202.12C187.53 206.102 188.937 209.913 189.739 213.841C190.787 218.981 190.862 224.497 193.508 229.023C194.005 229.989 194.755 230.803 195.678 231.378C196.245 231.691 196.895 231.823 197.54 231.754C197.136 231.701 196.746 231.574 196.389 231.378Z" fill="black"/>
</g>
<g filter="url(#filter1_d)">
<path d="M217.247 222.791C215.115 227.053 215.471 233.092 215.471 233.092C215.826 247.3 210.143 277.137 210.143 277.137H205.17C205.17 277.137 204.459 244.103 205.17 241.261C205.88 238.42 204.814 228.474 203.749 214.621C202.957 204.32 205.113 194.986 206.271 190.89C206.669 189.47 206.946 188.692 206.946 188.692C206.946 188.692 215.115 176.615 219.733 182.298C220.799 183.619 221.363 186.287 221.559 189.654C222.191 200.765 218.88 219.52 217.247 222.791Z" fill="#D8A575"/>
</g>
<path opacity="0.1" d="M221.56 189.656C221.365 186.288 220.807 183.617 219.734 182.299C218.704 181.035 217.496 180.651 216.246 180.818C217.215 180.979 218.084 181.51 218.669 182.299C219.734 183.621 220.299 186.288 220.494 189.656C221.127 200.766 217.816 219.521 216.182 222.792C214.051 227.055 214.406 233.093 214.406 233.093C214.761 247.301 209.078 277.138 209.078 277.138H210.144C210.144 277.138 215.827 247.301 215.472 233.093C215.472 233.093 215.117 227.055 217.248 222.792C218.882 219.521 222.192 200.766 221.56 189.656Z" fill="black"/>
<path d="M202.584 275.839C202.187 276.15 201.844 276.525 201.568 276.947C200.932 278.148 201.834 279.583 202.801 280.538C203.767 281.494 204.932 282.517 204.932 283.877C204.932 284.971 204.104 285.909 203.177 286.492C202.68 286.804 202.055 287.202 202.158 287.792C202.194 287.941 202.258 288.082 202.346 288.207C203.142 289.426 204.552 290.139 205.98 290.409C207.408 290.679 208.882 290.562 210.334 290.445C210.552 290.453 210.765 290.379 210.931 290.239C211.036 290.097 211.093 289.925 211.091 289.749C211.162 288.996 211.116 288.2 211.446 287.522C211.908 286.595 212.97 286.122 213.577 285.291C214.43 284.154 214.313 282.574 213.989 281.192C213.279 278.183 211.698 274.752 209.326 272.667C206.576 270.273 204.42 274.109 202.584 275.839Z" fill="#3F3D56"/>
<g filter="url(#filter2_d)">
<path d="M213.918 97.7052C215.7 94.6185 214.913 90.5199 212.698 87.7118C210.483 84.9037 207.115 83.2683 203.686 82.2955C199.064 80.9851 194.048 80.7651 189.489 82.2806C185.859 83.4854 182.675 85.7145 179.297 87.4971C173.321 90.6518 166.714 92.427 159.962 92.692C152.466 92.9778 144.142 91.6026 138.135 96.1079C127.139 104.343 133.596 124.349 123.277 133.401C120.494 135.842 116.87 137.067 113.724 139.016C110.578 140.965 107.687 144.186 108.009 147.874C108.162 149.644 109.053 151.283 110.109 152.718C114.613 158.91 122.497 162.404 130.123 161.825C137.749 161.245 144.927 156.695 148.912 150.159C149.911 148.523 150.767 146.718 152.297 145.571C155.348 143.268 159.649 144.454 163.476 144.514C171.996 144.645 180.053 137.722 181.188 129.264C181.661 125.655 181.255 121.406 183.975 118.98C186.17 117.023 189.452 117.194 192.367 116.692C197.696 115.78 201.71 112.158 204.335 107.598C205.539 105.508 205.536 103.105 207.254 101.407C209.102 99.5438 212.225 100.623 213.918 97.7052Z" fill="#3F3D56"/>
</g>
<g opacity="0.1">
<path opacity="0.1" d="M152.736 88.9245C155.85 89.01 158.966 88.7719 162.031 88.2141C161.186 88.239 160.333 88.239 159.484 88.2141C153.599 88.0507 147.273 86.8359 141.781 88.2994C145.404 88.3349 149.152 88.8251 152.736 88.9245Z" fill="black"/>
<path opacity="0.1" d="M141.59 141.202C139.988 142.247 139.015 143.991 137.91 145.557C134.515 150.323 129.553 153.744 123.891 155.222C124.306 155.24 124.722 155.25 125.141 155.247C132.796 155.172 140.251 151.105 144.659 144.847C145.764 143.28 146.737 141.536 148.339 140.492L148.616 140.321C146.108 139.977 143.647 139.856 141.59 141.202Z" fill="black"/>
<path opacity="0.1" d="M212.434 86.7404C210.413 83.8065 207.155 81.9381 203.799 80.7411C199.274 79.1285 194.283 78.5779 189.633 79.7892C189.527 79.814 189.424 79.846 189.321 79.8744C191.96 80.0216 194.564 80.5529 197.05 81.4515C200.407 82.6485 203.664 84.5169 205.685 87.4508C207.706 90.3848 208.225 94.5549 206.243 97.503C204.36 100.313 201.316 99.0304 199.323 100.76C197.498 102.341 197.341 104.738 196.002 106.745C193.491 110.5 189.996 113.494 185.645 114.631C187.14 114.453 188.717 114.475 190.209 114.318C195.587 113.761 199.831 110.411 202.751 106.035C204.09 104.028 204.246 101.63 206.072 100.05C208.065 98.32 211.109 99.6023 212.991 96.7926C214.977 93.8303 214.462 89.6744 212.434 86.7404Z" fill="black"/>
<path opacity="0.1" d="M183.462 115.027C180.539 115.332 177.275 114.949 174.937 116.757C172.064 118.998 172.202 123.264 171.478 126.834C170.231 133.075 165.166 138.222 159.152 140.136L159.575 140.175C168.068 140.868 176.564 134.492 178.255 126.127C178.965 122.557 178.841 118.291 181.715 116.05C182.375 115.556 183.124 115.195 183.921 114.984C183.761 114.988 183.615 115.013 183.462 115.027Z" fill="black"/>
</g>
<g filter="url(#filter3_d)">
<path d="M269.285 84.0857C269.285 84.0857 260.76 101.135 257.918 107.529C255.077 113.923 229.147 123.513 225.595 123.868C224.642 123.999 223.755 124.426 223.059 125.09C221.052 126.866 219.912 129.907 219.912 129.907C219.912 129.907 221.332 139.497 219.556 155.481C219.521 155.79 219.489 156.099 219.461 156.397C217.912 171.607 221.155 175.195 221.155 175.195C221.155 175.195 186.7 188.337 187.766 171.288C188.1 165.92 188.05 161.999 187.72 158.721C187.358 155.364 186.676 152.05 185.681 148.825C184.839 145.88 183.834 142.651 182.793 138.254C182.292 136.06 181.632 133.905 180.818 131.807C180.793 131.743 180.769 131.679 180.747 131.619C178.971 127.211 177.195 125.786 176.179 125.325C175.22 124.907 174.306 124.393 173.451 123.79C170.169 121.421 163.126 116.111 156.853 109.838C148.328 101.313 139.803 81.0665 139.803 81.0665C139.803 81.0665 137.317 69.3449 143 59.7544C148.683 50.164 146.197 78.5801 146.197 78.5801C146.197 78.5801 156.498 92.4329 158.984 98.8266C160.263 102.116 162.295 103.799 163.957 104.673C166.703 106.103 169.333 107.747 171.821 109.589C173.503 110.86 175.27 112.014 177.11 113.042C181.081 115.173 185.837 117.578 189.801 118.21C190.42 118.312 191.046 118.366 191.673 118.37C191.971 118.379 192.266 118.32 192.538 118.197C192.809 118.074 193.048 117.89 193.236 117.659C194.302 116.405 194.277 113.706 194.032 111.486C193.901 110.336 193.706 109.194 193.449 108.065C193.449 108.065 204.993 100.784 204.638 109.664C204.583 110.645 204.674 111.629 204.908 112.583C205.097 113.46 205.515 114.27 206.12 114.931C206.725 115.593 207.494 116.082 208.35 116.349C209.736 116.755 211.203 116.803 212.612 116.487C213.052 116.412 213.476 116.267 213.87 116.057C214.935 115.347 225.591 112.15 228.788 111.795C231.985 111.44 247.969 103.625 247.969 103.625L265.374 79.4717C265.374 79.4717 265.019 65.2636 272.123 59.5804C279.227 53.8972 269.285 84.0857 269.285 84.0857Z" fill="#D8A575"/>
</g>
<g opacity="0.1">
<path opacity="0.1" d="M219.462 154.267C219.151 157.121 219.015 159.992 219.053 162.863C219.089 160.987 219.213 158.845 219.462 156.398C219.49 156.1 219.522 155.791 219.558 155.482C220.179 150.011 220.475 144.509 220.446 139.004C220.391 143.798 220.094 148.586 219.558 153.35C219.536 153.66 219.49 153.969 219.462 154.267Z" fill="black"/>
<path opacity="0.1" d="M193.82 107.84C193.582 107.978 193.465 108.064 193.465 108.064C193.81 109.583 194.038 111.127 194.147 112.681C194.219 111.06 194.109 109.436 193.82 107.84Z" fill="black"/>
<path opacity="0.1" d="M146.364 76.6504C146.538 74.164 146.797 69.7062 146.748 65.7422C146.687 71.0418 146.215 76.4479 146.215 76.4479L146.364 76.6504Z" fill="black"/>
<path opacity="0.1" d="M187.791 170.871C187.791 171.01 187.791 171.148 187.766 171.287C186.701 188.336 221.155 175.194 221.155 175.194C220.752 174.65 220.448 174.039 220.257 173.389C215.067 175.237 188.988 183.825 187.791 170.871Z" fill="black"/>
<path opacity="0.1" d="M269.287 81.9549C269.287 81.9549 260.762 99.0045 257.921 105.398C255.079 111.792 229.149 121.382 225.597 121.737C224.644 121.868 223.757 122.296 223.061 122.959C221.054 124.735 219.914 127.776 219.914 127.776C219.914 127.776 219.999 128.355 220.102 129.456C220.5 128.543 221.523 126.447 223.061 125.09C223.757 124.427 224.644 123.999 225.597 123.869C229.149 123.513 255.079 113.923 257.921 107.529C260.762 101.136 269.287 84.0861 269.287 84.0861C269.287 84.0861 275.293 65.8465 274.633 60.3906C274.086 67.381 269.287 81.9549 269.287 81.9549Z" fill="black"/>
<path opacity="0.1" d="M187.722 156.591C187.36 153.234 186.677 149.921 185.683 146.695C184.841 143.75 183.836 140.521 182.795 136.124C182.294 133.93 181.634 131.775 180.82 129.677C180.795 129.613 180.77 129.549 180.749 129.489C178.973 125.081 177.197 123.656 176.181 123.195C175.222 122.777 174.308 122.263 173.453 121.66C170.171 119.291 163.128 113.981 156.855 107.708C148.33 99.1831 139.805 78.9366 139.805 78.9366C139.49 77.2274 139.314 75.4955 139.279 73.7578C139.193 76.2063 139.369 78.657 139.805 81.0678C139.805 81.0678 148.33 101.314 156.855 109.839C163.128 116.112 170.171 121.422 173.453 123.791C174.315 124.396 175.236 124.91 176.202 125.326C177.215 125.788 178.987 127.212 180.77 131.62C180.792 131.68 180.817 131.744 180.841 131.808C181.652 133.907 182.308 136.061 182.806 138.255C183.846 142.653 184.852 145.881 185.693 148.826C186.688 152.052 187.371 155.366 187.732 158.722C187.881 160.207 187.97 161.823 187.995 163.641C188.038 161.288 187.947 158.934 187.722 156.591Z" fill="black"/>
</g>
<g filter="url(#filter4_d)">
<path d="M222.899 141.157C222.356 142.054 221.882 142.989 221.478 143.956C220.942 145.448 220.938 147.071 220.839 148.652C220.697 150.87 220.359 153.072 219.83 155.23C219.744 155.628 219.625 156.018 219.475 156.395C219.369 156.65 219.229 156.889 219.059 157.106C218.87 157.338 218.647 157.54 218.398 157.706C218.017 157.96 217.614 158.18 217.194 158.363C212.25 160.672 206.858 162.711 201.462 161.915C199.181 161.517 196.974 160.774 194.916 159.713C192.962 158.765 190.753 157.639 188.728 158.427C188.418 158.585 188.083 158.689 187.737 158.736C187.671 158.737 187.604 158.731 187.539 158.719C186.871 158.591 186.871 156.339 186.718 155.674C186.135 153.124 186.047 151.057 185.699 148.84C185.514 147.615 185.227 146.406 184.843 145.228C183.422 140.93 182.992 136.348 182.992 131.844C182.992 131.62 181.394 131.844 180.861 131.823C180.726 131.823 180.651 131.801 180.683 131.755C180.714 131.711 180.75 131.671 180.79 131.634C180.976 131.483 181.193 131.375 181.426 131.318L181.845 131.194C184.04 130.572 186.462 130.313 188.103 128.768C189.808 127.173 190.234 124.626 190.16 122.296C190.139 121.547 189.773 119.728 189.833 118.218C190.452 118.321 191.078 118.374 191.705 118.378C192.003 118.388 192.298 118.329 192.569 118.205C192.84 118.082 193.079 117.898 193.268 117.668C193.861 118.815 194.373 120.002 194.802 121.22C195.406 122.705 195.868 124.268 196.752 125.61C198.173 127.798 200.795 129.237 203.402 129.017C206.009 128.796 208.435 126.793 208.9 124.221C209.309 121.966 208.36 118.719 208.382 116.375C209.768 116.782 211.235 116.829 212.644 116.514C212.704 116.658 212.755 116.807 212.797 116.958C213.596 119.7 214.662 122.847 217.343 123.82C219.077 124.445 221.126 123.976 222.728 124.886C222.851 124.956 222.97 125.035 223.083 125.12C223.453 125.395 223.772 125.733 224.025 126.118C224.683 127.205 225.074 128.432 225.165 129.699C225.575 133.659 224.786 137.651 222.899 141.157Z" fill="#FFDC5F"/>
</g>
<path opacity="0.1" d="M204.908 112.578C203.136 113.261 201.228 113.518 199.339 113.327C197.45 113.136 195.631 112.504 194.032 111.481C193.901 110.331 193.706 109.189 193.449 108.06C193.449 108.06 204.993 100.778 204.638 109.658C204.583 110.64 204.674 111.624 204.908 112.578Z" fill="black"/>
<path d="M200.549 112.677C207.219 112.677 212.626 107.27 212.626 100.6C212.626 93.9304 207.219 88.5234 200.549 88.5234C193.88 88.5234 188.473 93.9304 188.473 100.6C188.473 107.27 193.88 112.677 200.549 112.677Z" fill="#D8A575"/>
<path d="M179.418 130.619C179.418 130.619 202.861 115.7 275.677 131.684C348.494 147.668 390.763 134.881 390.763 134.881V151.575C390.763 151.575 309.066 160.455 277.809 151.575C246.551 142.695 202.055 137.573 186.472 151.323L179.418 130.619Z" fill="#F86D70"/>
<path opacity="0.1" d="M179.418 130.619C179.418 130.619 202.861 115.7 275.677 131.684C348.494 147.668 390.763 134.881 390.763 134.881V151.575C390.763 151.575 309.066 160.455 277.809 151.575C246.551 142.695 202.055 137.573 186.472 151.323L179.418 130.619Z" fill="black"/>
<g opacity="0.3" filter="url(#filter5_d)">
<path opacity="0.3" d="M180.129 131.326C180.129 131.326 202.862 116.407 275.678 132.391C348.494 148.375 390.053 135.588 390.053 135.588L390.408 150.862C390.408 150.862 309.422 159.742 278.164 150.862C246.907 141.982 202.766 135.794 187.183 149.544L180.129 131.326Z" fill="url(#paint0_linear)"/>
</g>
<path d="M171.583 154.275C171.583 154.275 148.14 169.193 75.3235 153.209C2.5073 137.225 6.05932 150.012 6.05932 150.012V133.318C6.05932 133.318 41.9346 124.438 73.1923 133.318C104.45 142.198 148.946 147.32 164.529 133.57L171.583 154.275Z" fill="#F86D70"/>
<path opacity="0.1" d="M171.583 154.275C171.583 154.275 148.14 169.193 75.3235 153.209C2.5073 137.225 6.05932 150.012 6.05932 150.012V133.318C6.05932 133.318 41.9346 124.438 73.1923 133.318C104.45 142.198 148.946 147.32 164.529 133.57L171.583 154.275Z" fill="black"/>
<g opacity="0.3" filter="url(#filter6_d)">
<path opacity="0.3" d="M170.872 153.561C170.872 153.561 148.139 168.479 75.323 152.495C2.50685 136.511 6.76926 149.298 6.76926 149.298L6.41406 134.025C6.41406 134.025 41.579 125.145 72.8366 134.025C104.094 142.905 148.235 149.092 163.818 135.343L170.872 153.561Z" fill="url(#paint1_linear)"/>
</g>
<path d="M190.164 102.602C189.809 100.386 189.262 97.5938 191.116 96.3257C191.777 95.9247 192.542 95.7271 193.315 95.7574C197.154 95.7183 200.824 98.393 204.589 97.6115C205.787 97.3604 206.887 96.7685 207.757 95.907C208.627 95.0455 209.229 93.9511 209.492 92.7553C209.755 91.5595 209.666 90.3133 209.237 89.1666C208.809 88.0199 208.058 87.0214 207.075 86.2913C205.594 85.1901 203.722 84.7923 201.91 84.4193C197.147 83.439 192.174 82.4622 187.472 83.7089C182.769 84.9557 178.471 89.1719 178.847 94.0098C179.025 96.3257 180.204 98.4285 181.437 100.403C182.374 101.902 186.026 108.928 187.798 109.035C190.299 109.18 190.409 104.051 190.164 102.602Z" fill="#3F3D56"/>
<g filter="url(#filter7_d)">
<path d="M220.091 169.156C220.091 169.156 195.582 175.195 187.412 169.156C187.412 169.156 183.86 183.009 184.926 190.113C184.926 190.113 202.331 191.179 204.107 192.244C204.107 192.244 204.462 189.403 206.238 190.824C206.238 190.824 212.276 183.72 223.288 190.113C223.288 190.113 225.419 173.419 220.091 169.156Z" fill="url(#paint2_linear)"/>
</g>
<path opacity="0.1" d="M207.084 86.2903C206.831 86.1071 206.566 85.941 206.292 85.793C207.025 86.6262 207.526 87.6373 207.746 88.7251C207.965 89.8129 207.896 90.9393 207.544 91.9917C207.192 93.0442 206.57 93.9858 205.74 94.7225C204.91 95.4592 203.901 95.9651 202.814 96.1897C199.049 96.9711 195.38 94.2965 191.54 94.3355C190.767 94.3053 190.003 94.5029 189.341 94.9039C187.487 96.1719 188.031 98.9638 188.386 101.18C188.62 102.629 188.524 107.759 186.031 107.62H185.988C186.674 108.455 187.313 109.02 187.807 109.041C190.293 109.179 190.396 104.068 190.162 102.601C189.807 100.385 189.263 97.5927 191.117 96.3247C191.779 95.9237 192.543 95.7261 193.316 95.7564C197.156 95.7173 200.825 98.3919 204.59 97.6105C205.788 97.3594 206.889 96.7675 207.758 95.906C208.628 95.0445 209.231 93.9501 209.493 92.7543C209.756 91.5585 209.668 90.3123 209.239 89.1656C208.81 88.0189 208.059 87.0204 207.077 86.2903H207.084Z" fill="black"/>
<g opacity="0.1">
<path opacity="0.1" d="M30.6745 69.4199C30.6745 69.4199 4.11612 58.2524 0.635152 78.3923C0.635152 78.3923 -1.17992 81.5287 1.34556 84.1217C1.34556 84.1217 1.88901 82.7329 4.45712 84.1714C5.37388 84.6755 6.3467 85.0701 7.35556 85.3472C8.71885 85.7232 10.1675 85.6459 11.483 85.1269C11.483 85.1269 20.2174 84.6545 27.5629 73.2277C27.5629 73.2277 30.71 71.2812 30.8699 70.553L25.6058 70.9082C25.6058 70.9082 26.0072 74.7622 23.8298 77.0745C23.8298 77.0745 25.7656 71.0965 24.835 70.926C24.6467 70.8905 22.0538 71.235 22.0538 71.235C22.0538 71.235 22.7251 77.9341 19.2122 81.4009C19.2122 81.4009 22.4729 74.5846 21.0521 71.3558L17.1698 72.1053C17.1698 72.1053 18.2354 79.1525 14.3921 83.255C14.3921 83.255 17.5498 76.0089 16.3315 72.3255L12.609 73.5758C12.609 73.5758 13.5076 80.4738 10.2931 83.8766C10.2931 83.8766 13.0992 75.1351 11.7778 73.931C11.7778 73.931 8.43182 75.2879 7.71431 76.0622C7.71431 76.0622 8.24711 81.035 6.20115 82.811C6.20115 82.811 7.45857 76.7726 6.83696 76.524C6.83696 76.524 2.94751 79.4508 1.76469 81.9763C1.76469 81.9763 3.24233 78.1188 6.34679 75.9379C6.34679 75.9379 3.73961 75.4974 1.72917 76.5879C1.72917 76.5879 3.07539 74.0269 7.28807 75.2417C7.28807 75.2417 10.4103 73.0821 11.0354 73.1105C11.0354 73.1105 7.05008 71.3345 4.1694 71.5511C4.1694 71.5511 7.2561 69.7751 12.0122 72.7446L15.7205 71.402C15.7205 71.402 10.5737 68.7628 7.99137 68.7735C7.99137 68.7735 11.4226 67.4486 16.6867 71.1427L20.4838 70.3648C20.4838 70.3648 16.2214 67.754 13.3478 67.1467C13.3478 67.1467 16.7968 66.6032 21.5814 70.1872L24.1814 69.967C24.1814 69.967 21.0343 68.1164 20.0824 67.6652C19.1305 67.2141 19.1731 66.9193 19.1731 66.9193C21.4388 67.3127 23.5504 68.3286 25.2719 69.8533C25.2719 69.8533 30.6496 69.7503 30.6745 69.4199Z" fill="#6C63FF"/>
</g>
<g opacity="0.1">
<path opacity="0.1" d="M29.6968 49.4011C29.6968 49.4011 20.2698 27.638 6.74021 37.6191C6.74021 37.6191 3.87373 38.4503 3.8986 41.4198C3.8986 41.4198 5.01393 40.9047 5.71723 43.2207C5.98018 44.0431 6.33778 44.8322 6.78283 45.5721C7.37146 46.5673 8.26786 47.344 9.33673 47.785C9.33673 47.785 14.7926 52.4807 25.676 49.8771C25.676 49.8771 28.6561 50.5165 29.1676 50.1719L25.8394 47.3801C25.8394 47.3801 23.8858 49.8984 21.2644 50.0228C21.2644 50.0228 25.8216 47.5719 25.3634 46.9396C25.271 46.8117 23.5377 45.5401 23.5377 45.5401C23.5377 45.5401 20.1171 49.902 16.0784 49.9695C16.0784 49.9695 21.9002 47.7743 22.8947 45.0499L20.1633 43.2739C20.1633 43.2739 16.7746 48.0656 12.1606 48.3142C12.1606 48.3142 18.1635 45.8278 19.5381 42.9294L16.6148 41.5512C16.6148 41.5512 13.2191 46.1688 9.37935 46.3429C9.37935 46.3429 16.0252 42.7482 15.9222 41.2813C15.9222 41.2813 13.1622 40.1801 12.2884 40.2441C12.2884 40.2441 9.77718 43.4942 7.53586 43.4018C7.53586 43.4018 11.7237 40.5282 11.4928 40.0274C11.4928 40.0274 7.51454 39.5514 5.37268 40.3826C5.37268 40.3826 8.44872 38.9334 11.5354 39.4093C11.5354 39.4093 10.2389 37.6582 8.43096 37.1716C8.43096 37.1716 10.69 36.415 12.5016 39.5372C12.5016 39.5372 15.5847 40.0309 15.9435 40.4004C15.9435 40.4004 14.5937 37.065 12.7467 35.5625C12.7467 35.5625 15.5883 36.2729 16.7249 40.7378L19.6908 42.0556C19.6908 42.0556 18.1386 37.5552 16.5793 36.0953C16.5793 36.0953 19.3747 37.2604 20.3977 42.4534L23.0937 44.1548C23.0937 44.1548 22.0458 40.1766 20.6889 38.1946C20.6889 38.1946 23.0475 39.832 23.8502 44.6876L25.5197 46.0374C25.5197 46.0374 24.7027 43.1461 24.3937 42.3362C24.0847 41.5263 24.28 41.3772 24.28 41.3772C25.4 42.9027 26.0751 44.7089 26.2301 46.5951C26.2301 46.5951 29.505 49.5859 29.6968 49.4011Z" fill="#6C63FF"/>
</g>
</g>
<defs>
<filter id="filter0_d" x="183.016" y="187.773" width="23.1357" height="48.0048" filterUnits="userSpaceOnUse" color-interpolation-filters="sRGB">
<feFlood flood-opacity="0" result="BackgroundImageFix"/>
<feColorMatrix in="SourceAlpha" type="matrix" values="0 0 0 0 0 0 0 0 0 0 0 0 0 0 0 0 0 0 127 0"/>
<feOffset dy="2"/>
<feGaussianBlur stdDeviation="1"/>
<feColorMatrix type="matrix" values="0 0 0 0 0 0 0 0 0 0 0 0 0 0 0 0 0 0 0.15 0"/>
<feBlend mode="normal" in2="BackgroundImageFix" result="effect1_dropShadow"/>
<feBlend mode="normal" in="SourceGraphic" in2="effect1_dropShadow" result="shape"/>
</filter>
<filter id="filter1_d" x="201.578" y="180.777" width="22.0599" height="100.36" filterUnits="userSpaceOnUse" color-interpolation-filters="sRGB">
<feFlood flood-opacity="0" result="BackgroundImageFix"/>
<feColorMatrix in="SourceAlpha" type="matrix" values="0 0 0 0 0 0 0 0 0 0 0 0 0 0 0 0 0 0 127 0"/>
<feOffset dy="2"/>
<feGaussianBlur stdDeviation="1"/>
<feColorMatrix type="matrix" values="0 0 0 0 0 0 0 0 0 0 0 0 0 0 0 0 0 0 0.15 0"/>
<feBlend mode="normal" in2="BackgroundImageFix" result="effect1_dropShadow"/>
<feBlend mode="normal" in="SourceGraphic" in2="effect1_dropShadow" result="shape"/>
</filter>
<filter id="filter2_d" x="103.984" y="81.2266" width="114.915" height="88.6604" filterUnits="userSpaceOnUse" color-interpolation-filters="sRGB">
<feFlood flood-opacity="0" result="BackgroundImageFix"/>
<feColorMatrix in="SourceAlpha" type="matrix" values="0 0 0 0 0 0 0 0 0 0 0 0 0 0 0 0 0 0 127 0"/>
<feOffset dy="4"/>
<feGaussianBlur stdDeviation="2"/>
<feColorMatrix type="matrix" values="0 0 0 0 0 0 0 0 0 0 0 0 0 0 0 0 0 0 0.25 0"/>
<feBlend mode="normal" in2="BackgroundImageFix" result="effect1_dropShadow"/>
<feBlend mode="normal" in="SourceGraphic" in2="effect1_dropShadow" result="shape"/>
</filter>
<filter id="filter3_d" x="135.262" y="57.7773" width="143.42" height="130.253" filterUnits="userSpaceOnUse" color-interpolation-filters="sRGB">
<feFlood flood-opacity="0" result="BackgroundImageFix"/>
<feColorMatrix in="SourceAlpha" type="matrix" values="0 0 0 0 0 0 0 0 0 0 0 0 0 0 0 0 0 0 127 0"/>
<feOffset dy="4"/>
<feGaussianBlur stdDeviation="2"/>
<feColorMatrix type="matrix" values="0 0 0 0 0 0 0 0 0 0 0 0 0 0 0 0 0 0 0.25 0"/>
<feBlend mode="normal" in2="BackgroundImageFix" result="effect1_dropShadow"/>
<feBlend mode="normal" in="SourceGraphic" in2="effect1_dropShadow" result="shape"/>
</filter>
<filter id="filter4_d" x="178.676" y="116.375" width="48.595" height="49.7155" filterUnits="userSpaceOnUse" color-interpolation-filters="sRGB">
<feFlood flood-opacity="0" result="BackgroundImageFix"/>
<feColorMatrix in="SourceAlpha" type="matrix" values="0 0 0 0 0 0 0 0 0 0 0 0 0 0 0 0 0 0 127 0"/>
<feOffset dy="2"/>
<feGaussianBlur stdDeviation="1"/>
<feColorMatrix type="matrix" values="0 0 0 0 0 0 0 0 0 0 0 0 0 0 0 0 0 0 0.15 0"/>
<feBlend mode="normal" in2="BackgroundImageFix" result="effect1_dropShadow"/>
<feBlend mode="normal" in="SourceGraphic" in2="effect1_dropShadow" result="shape"/>
</filter>
<filter id="filter5_d" x="176.129" y="125" width="218.279" height="37.8087" filterUnits="userSpaceOnUse" color-interpolation-filters="sRGB">
<feFlood flood-opacity="0" result="BackgroundImageFix"/>
<feColorMatrix in="SourceAlpha" type="matrix" values="0 0 0 0 0 0 0 0 0 0 0 0 0 0 0 0 0 0 127 0"/>
<feOffset dy="4"/>
<feGaussianBlur stdDeviation="2"/>
<feColorMatrix type="matrix" values="0 0 0 0 0 0 0 0 0 0 0 0 0 0 0 0 0 0 0.25 0"/>
<feBlend mode="normal" in2="BackgroundImageFix" result="effect1_dropShadow"/>
<feBlend mode="normal" in="SourceGraphic" in2="effect1_dropShadow" result="shape"/>
</filter>
<filter id="filter6_d" x="2.41406" y="130.078" width="172.458" height="37.808" filterUnits="userSpaceOnUse" color-interpolation-filters="sRGB">
<feFlood flood-opacity="0" result="BackgroundImageFix"/>
<feColorMatrix in="SourceAlpha" type="matrix" values="0 0 0 0 0 0 0 0 0 0 0 0 0 0 0 0 0 0 127 0"/>
<feOffset dy="4"/>
<feGaussianBlur stdDeviation="2"/>
<feColorMatrix type="matrix" values="0 0 0 0 0 0 0 0 0 0 0 0 0 0 0 0 0 0 0.25 0"/>
<feBlend mode="normal" in2="BackgroundImageFix" result="effect1_dropShadow"/>
<feBlend mode="normal" in="SourceGraphic" in2="effect1_dropShadow" result="shape"/>
</filter>
<filter id="filter7_d" x="182.727" y="169.156" width="42.9825" height="27.088" filterUnits="userSpaceOnUse" color-interpolation-filters="sRGB">
<feFlood flood-opacity="0" result="BackgroundImageFix"/>
<feColorMatrix in="SourceAlpha" type="matrix" values="0 0 0 0 0 0 0 0 0 0 0 0 0 0 0 0 0 0 127 0"/>
<feOffset dy="2"/>
<feGaussianBlur stdDeviation="1"/>
<feColorMatrix type="matrix" values="0 0 0 0 0 0 0 0 0 0 0 0 0 0 0 0 0 0 0.15 0"/>
<feBlend mode="normal" in2="BackgroundImageFix" result="effect1_dropShadow"/>
<feBlend mode="normal" in="SourceGraphic" in2="effect1_dropShadow" result="shape"/>
</filter>
<linearGradient id="paint0_linear" x1="188.999" y1="139.999" x2="382.499" y2="139.999" gradientUnits="userSpaceOnUse">
<stop stop-color="#FF0006"/>
<stop offset="0.323239" stop-color="white" stop-opacity="0.618605"/>
<stop offset="0.601738" stop-color="#FF0006"/>
<stop offset="0.97853" stop-color="white" stop-opacity="0.4"/>
</linearGradient>
<linearGradient id="paint1_linear" x1="13.3514" y1="145.077" x2="164.687" y2="145.077" gradientUnits="userSpaceOnUse">
<stop stop-color="#FF0006"/>
<stop offset="0.323239" stop-color="white" stop-opacity="0.618605"/>
<stop offset="0.601738" stop-color="#FF0006"/>
<stop offset="0.97853" stop-color="white" stop-opacity="0.4"/>
</linearGradient>
<linearGradient id="paint2_linear" x1="204.218" y1="169.156" x2="204.218" y2="192.244" gradientUnits="userSpaceOnUse">
<stop stop-color="#FFDB5C"/>
</linearGradient>
<clipPath id="clip0">
<rect width="391" height="300" fill="white"/>
</clipPath>
</defs>
</svg>
