<svg width="48" height="51" viewBox="0 0 48 51" fill="none" xmlns="http://www.w3.org/2000/svg">
<path d="M26.418 46.615C26.9751 45.849 27.5027 45.0893 27.9937 44.2806C28.9894 42.6406 30.0871 41.053 31.1596 39.4442C32.0693 38.0798 33.3252 36.8237 34.3694 35.5706C36.1913 33.3843 38.0825 31.3434 39.68 28.9907C40.6114 27.619 41.4524 26.2019 42.3644 24.8181C43.3076 23.3871 43.7706 21.6999 44.6696 20.2516C45.1671 19.45 43.3787 18.0938 42.897 17.5379C42.3327 16.8868 41.5188 16.5268 40.8617 15.9914C39.866 15.1801 38.7675 14.3735 37.6812 13.6863C34.8958 11.9241 32.2668 9.93479 29.7518 7.80668C28.3467 6.61778 27.1558 5.12844 25.6886 4.02798C25.4534 3.85162 25.1142 4.56038 24.9737 4.72098C24.0678 5.75631 23.2166 6.78431 22.2162 7.74832C20.0527 9.83318 17.8056 11.9332 15.505 13.8614C13.798 15.292 12.015 16.6209 10.4133 18.1726C9.04085 19.5021 7.74424 20.9073 6.39384 22.2577C5.48955 23.1619 4.7194 24.169 3.83337 25.0807C3.55014 25.3722 3.28542 25.6717 3.01635 25.9707C2.94742 26.0473 3.11487 25.9644 3.17684 26.0728C3.41874 26.4962 3.88521 26.8396 4.22729 27.1816C4.55862 27.513 4.73373 27.9149 5.0443 28.2613C5.60313 28.8846 5.92126 29.796 6.32818 30.5226C6.76809 31.3082 7.36209 32.1127 7.90386 32.8351C9.47834 34.9344 10.7986 37.2415 12.3391 39.3639C13.2138 40.5691 14.2074 41.6566 15.1549 42.8071C15.2165 42.882 15.6651 43.5803 15.8479 43.5803C16.1323 43.5803 16.5361 42.5979 16.767 42.4132C17.2856 41.9983 17.5335 41.2867 17.9488 40.7791C18.4907 40.1168 18.9896 39.4272 19.5901 38.8095C20.4173 37.9587 21.1885 36.8225 22.1141 36.1105C22.9885 35.4379 23.6996 34.446 24.4411 33.6302C25.388 32.5887 26.4805 31.6697 27.3955 30.6102C28.3872 29.462 29.2424 28.2999 30.0362 26.9482C30.2974 26.5036 30.5437 26.0725 30.8314 25.657C31.326 24.9426 31.584 23.7842 32.2612 23.2425C32.2996 23.2117 28.3516 19.6886 27.8624 19.4054C27.2257 19.0368 26.6465 18.3781 26.0387 17.9391C25.8287 17.7875 25.3809 17.2607 25.105 17.2607C24.8695 17.2607 24.4822 17.9521 24.3828 18.1288C24.0735 18.6787 23.5011 19.2676 23.077 19.7482C22.0468 20.9158 20.9399 21.8927 19.8454 22.9871C18.4468 24.3857 16.6429 25.2934 15.2278 26.6856C15.1153 26.7963 14.1614 27.514 14.2357 27.6777C14.2631 27.7379 14.5884 27.7193 14.6661 27.7798C15.0672 28.0918 15.3898 28.5073 15.7822 28.8157C16.4695 29.3556 17.1373 29.8498 17.7518 30.4643" stroke="#30419A" stroke-opacity="0.3" stroke-width="3" stroke-linecap="round" stroke-linejoin="round"/>
</svg>
