<svg width="352" height="300" viewBox="0 0 352 300" fill="none" xmlns="http://www.w3.org/2000/svg">
<g clip-path="url(#clip0)">
<path d="M352 160.333C352 241.593 279.349 300 179.96 300C71.1061 287.263 5.70604 231.045 0 173.07C4.82819 84.7902 67.1557 26.8161 160.208 3.97715C262.359 -21.095 338.803 77.324 352 160.333Z" fill="#E3F4FF" fill-opacity="0.73"/>
<path d="M247.823 170.316L228.863 152.617L219.872 144.324C219.025 143.543 218.375 142.572 217.976 141.49C217.576 140.409 217.438 139.249 217.574 138.104C217.71 136.959 218.115 135.863 218.756 134.905C219.397 133.947 220.256 133.155 221.262 132.593C222.151 132.097 223.135 131.792 224.148 131.699C225.162 131.605 226.185 131.725 227.149 132.051C228.114 132.376 229 132.9 229.75 133.588C230.5 134.277 231.098 135.115 231.505 136.048L234.462 142.833L252.827 161.883L247.823 170.316Z" fill="#D8A575"/>
<path d="M250.302 158.837L243.645 169.928L270.673 186.507C294.502 169.38 299.218 163.805 293.38 136.522L288.737 131.879L266.284 168.295L250.302 158.837Z" fill="#6BA16D"/>
<path d="M211.052 128.002C210.785 127.739 210.436 127.576 210.063 127.539C209.69 127.502 209.316 127.595 209.003 127.801L196.486 135.953C196.281 136.087 196.107 136.265 195.98 136.475C195.852 136.684 195.772 136.919 195.747 137.164C195.722 137.408 195.751 137.654 195.834 137.885C195.916 138.117 196.049 138.326 196.223 138.5L228.054 170.192C228.209 170.346 228.392 170.468 228.595 170.55C228.797 170.633 229.013 170.674 229.232 170.672C229.45 170.67 229.666 170.624 229.866 170.538C230.067 170.452 230.248 170.327 230.4 170.17L240.831 159.373C241.133 159.06 241.298 158.64 241.292 158.205C241.286 157.771 241.108 157.356 240.797 157.051L211.052 128.002Z" fill="#3F3D56"/>
<path d="M198.954 136.825L200.249 135.999C200.113 136.242 200.062 136.524 200.107 136.8C200.151 137.075 200.288 137.327 200.493 137.515C200.699 137.703 200.963 137.815 201.241 137.834C201.519 137.853 201.796 137.778 202.025 137.62L210.407 131.857C210.598 131.726 210.748 131.544 210.84 131.332C210.933 131.121 210.963 130.887 210.929 130.658C210.895 130.43 210.798 130.215 210.648 130.04C210.498 129.864 210.302 129.734 210.081 129.664L210.749 129.238C210.835 129.183 210.938 129.159 211.04 129.171C211.142 129.182 211.237 129.228 211.31 129.301L239.508 157.013C239.55 157.055 239.583 157.106 239.605 157.161C239.627 157.217 239.638 157.276 239.637 157.336C239.636 157.396 239.623 157.455 239.599 157.51C239.575 157.565 239.54 157.614 239.496 157.655L229.255 167.634C229.17 167.714 229.058 167.758 228.941 167.756C228.824 167.754 228.713 167.707 228.63 167.625L198.878 137.522C198.83 137.474 198.794 137.417 198.772 137.353C198.749 137.29 198.741 137.222 198.749 137.155C198.756 137.088 198.778 137.024 198.814 136.967C198.849 136.91 198.897 136.861 198.954 136.825Z" fill="white"/>
<path d="M231.495 150.895L222.845 159.051L202.27 138.723L212.712 131.926L231.495 150.895Z" fill="#4481AE"/>
<path d="M203.072 143.737C203.128 143.681 203.159 143.605 203.159 143.525C203.159 143.446 203.128 143.37 203.072 143.314L201.273 141.514C201.215 141.46 201.14 141.43 201.061 141.43C200.982 141.43 200.906 141.46 200.849 141.514C200.793 141.571 200.762 141.647 200.762 141.726C200.762 141.805 200.793 141.882 200.849 141.938L202.648 143.737C202.705 143.791 202.781 143.822 202.86 143.822C202.939 143.822 203.015 143.791 203.072 143.737Z" fill="#E6E6E6"/>
<path d="M206.103 146.348L204.304 144.549C204.276 144.521 204.243 144.499 204.207 144.484C204.171 144.469 204.132 144.461 204.092 144.461C204.053 144.461 204.014 144.469 203.978 144.484C203.941 144.499 203.908 144.521 203.881 144.549C203.853 144.576 203.831 144.609 203.816 144.646C203.801 144.682 203.793 144.721 203.793 144.76C203.793 144.8 203.801 144.839 203.816 144.875C203.831 144.911 203.853 144.944 203.881 144.972L205.68 146.771C205.736 146.827 205.812 146.859 205.892 146.859C205.971 146.859 206.047 146.827 206.103 146.771C206.159 146.715 206.191 146.639 206.191 146.56C206.191 146.48 206.159 146.404 206.103 146.348Z" fill="#E6E6E6"/>
<path d="M231.298 159.917C232.414 159.917 233.319 159.012 233.319 157.896C233.319 156.78 232.414 155.875 231.298 155.875C230.182 155.875 229.277 156.78 229.277 157.896C229.277 159.012 230.182 159.917 231.298 159.917Z" fill="#EBEBEB"/>
<path d="M316.826 229.333H160.113V228.246H317.023L316.826 229.333Z" fill="#4481AE"/>
<path d="M298.906 228.622V71.9102H299.993V228.819L298.906 228.622Z" fill="#4481AE"/>
<path d="M101.444 223.975L91.1785 226.685C89.7201 229.565 87.2285 231.787 84.202 232.908C81.1755 234.03 77.8373 233.967 74.855 232.733L74.6308 232.64C73.2705 232.059 72.0015 231.285 70.8633 230.34C66.5517 226.845 59.3684 225.041 49.8427 224.617C49.2586 224.433 48.7522 224.061 48.403 223.558C48.0538 223.055 47.8818 222.45 47.914 221.838C47.9479 221.194 48.2065 220.582 48.6448 220.109C49.0831 219.635 49.6735 219.33 50.3133 219.247L101.677 212.547L101.444 223.975Z" fill="#8AB1C7"/>
<g filter="url(#filter0_d)">
<path d="M234.619 233.07C207.763 228.763 183.297 221.792 162.784 210.415L99.1133 226.042L99.3465 212.08L149.115 194.623C157.512 191.678 166.435 190.538 175.302 191.277L234.619 202.284V233.07Z" fill="#41404E"/>
</g>
<path d="M132.231 238.674C132.029 237.999 132.05 237.277 132.292 236.615C132.534 235.953 132.984 235.387 133.574 235.002L157.652 222.343L163.482 207.184L173.511 213.481L170.712 224.675L171.374 229.308C171.582 230.761 171.475 232.242 171.06 233.65C170.646 235.058 169.933 236.36 168.972 237.469C168.01 238.578 166.821 239.467 165.486 240.076C164.151 240.686 162.7 241.001 161.233 241.001H135.359C134.657 241.001 133.973 240.775 133.41 240.356C132.846 239.936 132.433 239.347 132.231 238.674Z" fill="#8AB1C7"/>
<g filter="url(#filter1_d)">
<path d="M267.036 224.442C237.958 260.594 217.951 221.218 198.234 179.43L174.444 218.145L159.984 207.883L184.919 153.028C185.534 151.674 186.462 150.486 187.626 149.561C188.791 148.636 190.158 148.001 191.616 147.708C193.074 147.415 194.581 147.472 196.013 147.875C197.444 148.278 198.759 149.015 199.85 150.026L234.617 188.759L241.147 188.292L267.036 224.442Z" fill="#2F2E41"/>
</g>
<path d="M268.669 121.123C278.201 121.123 285.928 113.396 285.928 103.864C285.928 94.3325 278.201 86.6055 268.669 86.6055C259.137 86.6055 251.41 94.3325 251.41 103.864C251.41 113.396 259.137 121.123 268.669 121.123Z" fill="#D8A575"/>
<path d="M290.593 134.649L271.469 138.847C269.633 130.972 266.975 123.311 263.539 115.991L281.264 109.461C283.442 118.173 286.571 126.62 290.593 134.649Z" fill="#D8A575"/>
<g filter="url(#filter2_d)">
<path d="M269.051 228.486L235 188.371L248.866 165.323C250.325 154.956 255.68 146.807 263.92 140.301L269.518 130.997L286.31 124C292.206 128.69 296.398 135.188 298.239 142.493C300.081 149.798 299.471 157.506 296.504 164.431L269.051 228.486Z" fill="#4B7238"/>
</g>
<g filter="url(#filter3_d)">
<path d="M240.683 172.899L235.086 184.56L263.54 198.554C285.671 179.284 298.012 160.805 289.661 134.184L278.932 136.982L257.476 180.829L240.683 172.899Z" fill="#65984D"/>
</g>
<path d="M291.075 83.9734C294.87 83.9734 297.946 80.897 297.946 77.102C297.946 73.3069 294.87 70.2305 291.075 70.2305C287.28 70.2305 284.203 73.3069 284.203 77.102C284.203 80.897 287.28 83.9734 291.075 83.9734Z" fill="#2F2E41"/>
<path d="M283.992 75.4197C284.105 73.6762 284.879 72.0413 286.155 70.848C287.431 69.6547 289.114 68.9928 290.861 68.997C290.719 68.979 290.578 68.9571 290.434 68.9478C288.615 68.8308 286.824 69.4412 285.456 70.6446C284.087 71.8479 283.252 73.5458 283.135 75.3645C283.018 77.1833 283.629 78.974 284.832 80.3428C286.035 81.7115 287.733 82.5461 289.552 82.6631C289.697 82.6723 289.839 82.6687 289.982 82.669C288.249 82.4494 286.664 81.5774 285.551 80.2305C284.439 78.8837 283.881 77.1632 283.992 75.4197Z" fill="#2F2E41"/>
<g filter="url(#filter4_d)">
<path d="M283.957 78.3535C277.828 73.2697 260.251 79.731 259.116 83.149C250.829 84.2784 244.555 89.1135 244.555 97.7106V97.7107C249.482 99.7291 255.085 99.4804 261.143 97.7107C270.799 105.58 271.461 115.472 265.588 126.834L272.813 126.979L281.768 113.89L282.196 127.166L298.757 126.834V107.809C298.81 101.483 297.354 95.236 294.51 89.5857C291.929 84.5721 287.924 81.6447 283.957 78.3535Z" fill="#2F2E41"/>
</g>
<path d="M268.536 111.967C270.351 111.967 271.822 109.907 271.822 107.366C271.822 104.825 270.351 102.766 268.536 102.766C266.721 102.766 265.25 104.825 265.25 107.366C265.25 109.907 266.721 111.967 268.536 111.967Z" fill="#D8A575"/>
<path d="M239.281 184.56L218.756 168.701L209.033 161.28C208.117 160.581 207.379 159.675 206.881 158.635C206.383 157.596 206.138 156.453 206.166 155.301C206.195 154.149 206.496 153.02 207.045 152.006C207.595 150.993 208.376 150.124 209.326 149.471C210.165 148.894 211.116 148.499 212.116 148.312C213.117 148.125 214.146 148.149 215.137 148.383C216.128 148.617 217.059 149.057 217.87 149.672C218.68 150.288 219.354 151.067 219.845 151.958L223.421 158.439L243.479 175.698L239.281 184.56Z" fill="#D8A575"/>
<g opacity="0.7" filter="url(#filter5_d)">
<path opacity="0.7" fill-rule="evenodd" clip-rule="evenodd" d="M109 93C133.301 93 153 73.3005 153 49C153 24.6995 133.301 5 109 5C84.6995 5 65 24.6995 65 49C65 73.3005 84.6995 93 109 93Z" fill="#BACFDD"/>
<path opacity="0.7" fill-rule="evenodd" clip-rule="evenodd" d="M108.998 16.6178C110.374 16.6178 111.489 15.5028 111.489 14.1273C111.489 12.7518 110.374 11.6367 108.998 11.6367C107.623 11.6367 106.508 12.7518 106.508 14.1273C106.508 15.5028 107.623 16.6178 108.998 16.6178Z" fill="#089FF4"/>
<path opacity="0.7" fill-rule="evenodd" clip-rule="evenodd" d="M74.1195 51.4889C75.495 51.4889 76.61 50.3739 76.61 48.9984C76.61 47.6229 75.495 46.5078 74.1195 46.5078C72.744 46.5078 71.6289 47.6229 71.6289 48.9984C71.6289 50.3739 72.744 51.4889 74.1195 51.4889Z" fill="#089FF4"/>
<path opacity="0.7" fill-rule="evenodd" clip-rule="evenodd" d="M143.881 51.4889C145.257 51.4889 146.372 50.3739 146.372 48.9984C146.372 47.6229 145.257 46.5078 143.881 46.5078C142.506 46.5078 141.391 47.6229 141.391 48.9984C141.391 50.3739 142.506 51.4889 143.881 51.4889Z" fill="#089FF4"/>
<path opacity="0.7" fill-rule="evenodd" clip-rule="evenodd" d="M108.998 86.3561C110.374 86.3561 111.489 85.2411 111.489 83.8656C111.489 82.4901 110.374 81.375 108.998 81.375C107.623 81.375 106.508 82.4901 106.508 83.8656C106.508 85.2411 107.623 86.3561 108.998 86.3561Z" fill="#089FF4"/>
<path opacity="0.7" fill-rule="evenodd" clip-rule="evenodd" d="M109.012 19.1133L110.672 48.1699H107.352L109.012 19.1133Z" fill="#089FF4"/>
<path opacity="0.7" fill-rule="evenodd" clip-rule="evenodd" d="M123.704 63.6887L108.441 50.774L110.789 48.4258L123.704 63.6887Z" fill="#089FF4"/>
<path opacity="0.7" fill-rule="evenodd" clip-rule="evenodd" d="M108.989 52.3173C110.823 52.3173 112.309 50.8305 112.309 48.9965C112.309 47.1625 110.823 45.6758 108.989 45.6758C107.155 45.6758 105.668 47.1625 105.668 48.9965C105.668 50.8305 107.155 52.3173 108.989 52.3173Z" fill="#4481AE"/>
</g>
</g>
<defs>
<filter id="filter0_d" x="97.1133" y="191.059" width="139.506" height="46.0116" filterUnits="userSpaceOnUse" color-interpolation-filters="sRGB">
<feFlood flood-opacity="0" result="BackgroundImageFix"/>
<feColorMatrix in="SourceAlpha" type="matrix" values="0 0 0 0 0 0 0 0 0 0 0 0 0 0 0 0 0 0 127 0"/>
<feOffset dy="2"/>
<feGaussianBlur stdDeviation="1"/>
<feColorMatrix type="matrix" values="0 0 0 0 0 0 0 0 0 0 0 0 0 0 0 0 0 0 0.15 0"/>
<feBlend mode="normal" in2="BackgroundImageFix" result="effect1_dropShadow"/>
<feBlend mode="normal" in="SourceGraphic" in2="effect1_dropShadow" result="shape"/>
</filter>
<filter id="filter1_d" x="155.984" y="147.523" width="115.052" height="99.1291" filterUnits="userSpaceOnUse" color-interpolation-filters="sRGB">
<feFlood flood-opacity="0" result="BackgroundImageFix"/>
<feColorMatrix in="SourceAlpha" type="matrix" values="0 0 0 0 0 0 0 0 0 0 0 0 0 0 0 0 0 0 127 0"/>
<feOffset dy="4"/>
<feGaussianBlur stdDeviation="2"/>
<feColorMatrix type="matrix" values="0 0 0 0 0 0 0 0 0 0 0 0 0 0 0 0 0 0 0.25 0"/>
<feBlend mode="normal" in2="BackgroundImageFix" result="effect1_dropShadow"/>
<feBlend mode="normal" in="SourceGraphic" in2="effect1_dropShadow" result="shape"/>
</filter>
<filter id="filter2_d" x="231" y="124" width="72.2819" height="112.486" filterUnits="userSpaceOnUse" color-interpolation-filters="sRGB">
<feFlood flood-opacity="0" result="BackgroundImageFix"/>
<feColorMatrix in="SourceAlpha" type="matrix" values="0 0 0 0 0 0 0 0 0 0 0 0 0 0 0 0 0 0 127 0"/>
<feOffset dy="4"/>
<feGaussianBlur stdDeviation="2"/>
<feColorMatrix type="matrix" values="0 0 0 0 0 0 0 0 0 0 0 0 0 0 0 0 0 0 0.25 0"/>
<feBlend mode="normal" in2="BackgroundImageFix" result="effect1_dropShadow"/>
<feBlend mode="normal" in="SourceGraphic" in2="effect1_dropShadow" result="shape"/>
</filter>
<filter id="filter3_d" x="233.086" y="134.184" width="61.2004" height="68.37" filterUnits="userSpaceOnUse" color-interpolation-filters="sRGB">
<feFlood flood-opacity="0" result="BackgroundImageFix"/>
<feColorMatrix in="SourceAlpha" type="matrix" values="0 0 0 0 0 0 0 0 0 0 0 0 0 0 0 0 0 0 127 0"/>
<feOffset dy="2"/>
<feGaussianBlur stdDeviation="1"/>
<feColorMatrix type="matrix" values="0 0 0 0 0 0 0 0 0 0 0 0 0 0 0 0 0 0 0.15 0"/>
<feBlend mode="normal" in2="BackgroundImageFix" result="effect1_dropShadow"/>
<feBlend mode="normal" in="SourceGraphic" in2="effect1_dropShadow" result="shape"/>
</filter>
<filter id="filter4_d" x="240.555" y="76.4727" width="62.2034" height="58.6934" filterUnits="userSpaceOnUse" color-interpolation-filters="sRGB">
<feFlood flood-opacity="0" result="BackgroundImageFix"/>
<feColorMatrix in="SourceAlpha" type="matrix" values="0 0 0 0 0 0 0 0 0 0 0 0 0 0 0 0 0 0 127 0"/>
<feOffset dy="4"/>
<feGaussianBlur stdDeviation="2"/>
<feColorMatrix type="matrix" values="0 0 0 0 0 0 0 0 0 0 0 0 0 0 0 0 0 0 0.25 0"/>
<feBlend mode="normal" in2="BackgroundImageFix" result="effect1_dropShadow"/>
<feBlend mode="normal" in="SourceGraphic" in2="effect1_dropShadow" result="shape"/>
</filter>
<filter id="filter5_d" x="61" y="5" width="96" height="96" filterUnits="userSpaceOnUse" color-interpolation-filters="sRGB">
<feFlood flood-opacity="0" result="BackgroundImageFix"/>
<feColorMatrix in="SourceAlpha" type="matrix" values="0 0 0 0 0 0 0 0 0 0 0 0 0 0 0 0 0 0 127 0"/>
<feOffset dy="4"/>
<feGaussianBlur stdDeviation="2"/>
<feColorMatrix type="matrix" values="0 0 0 0 0 0 0 0 0 0 0 0 0 0 0 0 0 0 0.25 0"/>
<feBlend mode="normal" in2="BackgroundImageFix" result="effect1_dropShadow"/>
<feBlend mode="normal" in="SourceGraphic" in2="effect1_dropShadow" result="shape"/>
</filter>
<clipPath id="clip0">
<rect width="352" height="300" fill="white"/>
</clipPath>
</defs>
</svg>
